<svg width="300" height="300" viewBox="0 0 300 300" fill="none" xmlns="http://www.w3.org/2000/svg">
<path d="M221.834 106.797C226.479 83.6147 231.125 60.4415 235.77 37.2593C236.433 33.9655 237.095 30.6627 237.748 27.3688C238.169 25.2923 236.522 23.6454 234.446 24.066C211.263 28.7114 188.09 33.3568 164.908 38.0022C161.614 38.6645 158.311 39.3269 155.017 39.9803C152.995 40.3831 152.484 43.113 153.836 44.4646C161.211 51.8399 168.587 59.2152 175.962 66.5906V62.7955C162.044 76.7138 148.125 90.632 134.198 104.559H137.993C128.219 94.7851 118.445 85.011 108.671 75.2369C107.642 74.2076 105.905 74.2076 104.876 75.2369C84.4595 95.6533 64.0341 116.079 43.6177 136.495C40.3328 139.78 37.0569 143.056 33.772 146.341C32.7427 147.37 32.7427 149.107 33.772 150.136C40.1986 156.562 46.6161 162.98 53.0427 169.407C54.072 170.436 55.8085 170.436 56.8378 169.407C74.1125 152.132 91.3873 134.857 108.671 117.573H104.876C114.65 127.348 124.424 137.122 134.198 146.896C135.228 147.925 136.964 147.925 137.993 146.896C155.42 129.469 172.847 112.042 190.274 94.6151C193.192 91.6971 196.11 88.7792 199.028 85.8613H195.233C202.608 93.2367 209.983 100.612 217.359 107.987C219.802 110.431 223.606 106.636 221.154 104.192C213.779 96.8169 206.403 89.4416 199.028 82.0662C197.999 81.0369 196.262 81.0369 195.233 82.0662C178.37 98.9293 161.498 115.801 144.635 132.664C141.153 136.146 137.68 139.619 134.198 143.101H137.993C128.219 133.327 118.445 123.553 108.671 113.778C107.642 112.749 105.905 112.749 104.876 113.778C87.6012 131.053 70.3264 148.328 53.0427 165.612H56.8378C50.4112 159.185 43.9936 152.767 37.5671 146.341V150.136C57.527 130.176 77.4869 110.216 97.4469 90.2561C101.188 86.5147 104.93 82.7733 108.671 79.032H104.876C114.65 88.8061 124.424 98.5802 134.198 108.354C135.228 109.384 136.964 109.384 137.993 108.354C151.912 94.436 165.83 80.5178 179.757 66.5906C180.786 65.5612 180.786 63.8248 179.757 62.7955C172.382 55.4202 165.006 48.0448 157.631 40.6695L156.45 45.1538C179.632 40.5084 202.805 35.863 225.987 31.2176C229.281 30.5553 232.584 29.8929 235.878 29.2395L232.575 25.9367C227.929 49.1189 223.284 72.2921 218.639 95.4743C217.976 98.7682 217.314 102.071 216.661 105.365C216.007 108.659 221.163 110.18 221.843 106.797H221.834Z" fill="white"/>
<path d="M98.8611 270.63H45.7658L48.451 273.315V201.969L45.7658 204.654H98.8611L96.1759 201.969V273.315C96.1759 276.77 101.546 276.779 101.546 273.315V201.969C101.546 200.519 100.32 199.284 98.8611 199.284H45.7658C44.3158 199.284 43.0806 200.51 43.0806 201.969V273.315C43.0806 274.765 44.3069 276 45.7658 276H98.8611C102.316 276 102.325 270.63 98.8611 270.63Z" fill="white"/>
<path d="M168.945 270.63H115.849L118.535 273.315V171.716L115.849 174.401H168.945L166.259 171.716V273.315C166.259 276.77 171.63 276.779 171.63 273.315V171.716C171.63 170.266 170.404 169.031 168.945 169.031H115.849C114.399 169.031 113.164 170.257 113.164 171.716V273.315C113.164 274.765 114.39 276 115.849 276H168.945C172.4 276 172.409 270.63 168.945 270.63Z" fill="white"/>
<path d="M239.028 270.63H185.933L188.618 273.315V141.454L185.933 144.139H239.028L236.343 141.454V273.315C236.343 276.77 241.713 276.779 241.713 273.315V141.454C241.713 140.004 240.487 138.769 239.028 138.769H185.933C184.483 138.769 183.248 139.995 183.248 141.454V273.315C183.248 274.765 184.474 276 185.933 276H239.028C242.483 276 242.492 270.63 239.028 270.63Z" fill="white"/>
</svg>
