<svg width="300" height="300" viewBox="0 0 300 300" fill="none" xmlns="http://www.w3.org/2000/svg">
<path d="M68.1152 202.301C60.7152 197.031 66.9652 189.551 70.3552 184.121C73.6052 178.891 77.9652 169.451 85.7352 174.311C93.3052 179.051 86.9252 186.981 83.7552 192.081C80.2652 197.691 76.3352 206.741 68.1252 202.311C64.7252 200.481 61.6952 205.661 65.0952 207.491C73.3952 211.971 80.8252 208.151 85.4152 200.781C88.6652 195.561 93.9852 189.491 95.1052 183.291C96.9852 172.851 86.3252 164.251 76.4952 168.081C70.1052 170.571 66.8252 178.461 63.4252 183.921C61.5652 186.901 59.3952 189.811 58.7652 193.331C57.7252 199.111 60.4852 204.191 65.1052 207.481C68.2552 209.721 71.2552 204.521 68.1352 202.301H68.1152Z" fill="white"/>
<path d="M86.4352 213.701C77.5952 207.411 89.1252 194.781 92.9552 188.621C96.7852 182.461 102.985 167.251 112.285 173.901C119.955 179.381 109.585 191.381 106.095 196.991C102.165 203.301 96.1252 218.921 86.4352 213.701C83.0352 211.871 80.0052 217.051 83.4052 218.881C89.3452 222.081 96.5752 221.341 101.115 216.051C103.145 213.691 104.625 210.711 106.265 208.091C110.725 200.921 116.125 193.811 119.795 186.191C125.985 173.321 110.665 161.001 99.4052 168.951C96.5952 170.931 94.9952 174.011 93.2252 176.861C90.4652 181.301 87.7052 185.741 84.9352 190.181C82.9252 193.411 80.7352 196.581 78.8852 199.901C75.0552 206.801 77.1052 214.391 83.4152 218.881C86.5652 221.121 89.5652 215.921 86.4452 213.701H86.4352Z" fill="white"/>
<path d="M104.755 225.091C96.7452 219.391 104.835 210.381 108.405 204.641C111.745 199.271 116.885 187.121 125.195 192.561C133.505 198.001 125.205 207.131 121.805 212.601C118.125 218.521 113.625 229.881 104.755 225.101C101.355 223.271 98.3252 228.451 101.725 230.281C106.605 232.911 112.295 233.021 116.935 229.751C119.635 227.851 121.175 224.961 122.875 222.231L129.695 211.261C131.265 208.731 133.305 206.091 134.175 203.201C137.525 192.081 125.855 181.661 115.225 186.631C108.615 189.711 104.835 199.021 101.185 204.881C99.4052 207.741 97.1552 210.651 95.9952 213.841C93.6952 220.211 96.4052 226.501 101.715 230.281C104.865 232.521 107.865 227.321 104.745 225.101L104.755 225.091Z" fill="white"/>
<path d="M123.075 236.491C116.135 231.551 121.145 225.011 124.375 219.821C127.605 214.631 131.345 207.491 138.815 211.521L137.325 208.931C137.325 210.181 138.095 210.671 138.815 211.521C140.795 213.871 142.725 215.351 142.395 218.821C142.145 221.481 140.175 223.921 138.805 226.121C135.295 231.761 131.345 240.951 123.075 236.491C119.675 234.661 116.645 239.841 120.045 241.671C125.155 244.421 131.225 244.411 135.865 240.671C138.855 238.251 140.695 234.431 142.695 231.221C144.695 228.011 147.315 224.671 148.125 220.891C149.375 215.021 146.555 209.691 141.845 206.341L143.335 208.931C143.335 207.901 142.775 206.841 141.845 206.341C136.735 203.591 130.665 203.601 126.025 207.341C123.035 209.761 121.195 213.581 119.195 216.791C117.195 220.001 114.575 223.341 113.765 227.121C112.515 232.991 115.335 238.321 120.045 241.671C123.195 243.911 126.195 238.711 123.075 236.491Z" fill="white"/>
<path d="M215.815 106.191C206.225 110.161 197.485 109.721 188.785 103.671C182.545 99.3305 178.145 95.5605 170.155 95.5005C165.885 95.4705 161.615 95.5005 157.345 95.5005C153.335 95.5005 148.935 95.0705 145.045 96.1805C138.275 98.1205 132.565 104.281 127.305 108.661C120.385 114.421 112.855 119.751 106.785 126.441C103.875 129.651 99.6852 134.731 102.525 139.211C105.365 143.691 112.855 144.981 117.695 144.811C127.895 144.451 138.065 139.141 145.985 132.961L142.345 133.431C158.665 143.591 174.985 153.761 191.305 163.921C201.525 170.281 211.745 176.651 221.965 183.011C224.615 184.661 227.335 186.241 229.935 187.971C230.275 188.191 230.645 188.371 230.965 188.611C236.555 192.831 235.155 202.391 227.335 202.961C222.305 203.321 215.925 197.601 211.945 195.131C207.275 192.231 202.615 189.321 197.945 186.421C194.655 184.371 191.645 189.561 194.915 191.601C199.585 194.501 204.245 197.411 208.915 200.311C213.185 202.971 217.815 206.881 222.705 208.361C231.655 211.061 240.885 203.991 240.545 194.631C240.345 189.201 237.055 185.421 232.735 182.661C211.605 169.131 190.125 156.131 168.835 142.871C161.005 138.001 153.185 133.121 145.355 128.251C144.115 127.481 142.765 127.901 141.715 128.721C142.825 127.851 140.865 129.331 140.515 129.571C139.085 130.571 137.615 131.511 136.115 132.391C131.705 134.991 126.985 137.191 121.955 138.251C119.355 138.801 116.605 139.061 113.965 138.641C112.295 138.381 107.845 137.341 107.615 135.601C107.355 133.641 111.355 130.271 112.485 129.131C115.275 126.311 118.295 123.741 121.345 121.221C127.135 116.441 132.915 111.611 138.765 106.911C142.845 103.631 146.395 101.561 151.715 101.511C158.485 101.441 165.545 100.961 172.295 101.551C180.775 102.291 186.845 110.971 194.905 113.641C202.505 116.161 210.145 115.001 217.385 111.991C220.905 110.531 219.355 104.731 215.785 106.201L215.815 106.191Z" fill="white"/>
<path d="M192.475 190.071C195.735 192.101 199.005 194.131 202.265 196.161C204.055 197.271 205.915 198.291 207.015 200.191C209.735 204.891 206.645 211.211 201.185 211.761C196.705 212.221 192.205 208.241 188.575 205.991C185.685 204.191 182.795 202.391 179.905 200.591C176.615 198.541 173.605 203.731 176.875 205.771C185.865 211.371 198.905 223.391 209.225 214.521C216.125 208.591 215.235 197.941 208.035 192.731C204.065 189.861 199.665 187.471 195.505 184.881C192.215 182.831 189.205 188.021 192.475 190.061V190.071Z" fill="white"/>
<path d="M176.875 205.781C179.475 207.401 182.155 208.931 184.695 210.651C190.515 214.591 190.715 224.371 182.225 225.391C176.535 226.071 169.065 219.281 164.315 216.321C161.025 214.271 158.015 219.461 161.285 221.501C169.745 226.771 180.595 236.411 190.265 228.151C196.025 223.231 196.635 214.291 191.635 208.611C188.605 205.171 183.755 203.001 179.915 200.601C176.625 198.551 173.615 203.741 176.885 205.781H176.875Z" fill="white"/>
<path d="M161.285 221.491C163.015 222.561 164.905 223.521 166.525 224.751C171.945 228.861 170.915 238.221 163.265 238.991C158.285 239.501 152.745 234.511 148.725 232.011C145.435 229.961 142.425 235.151 145.695 237.191C153.475 242.041 162.525 249.261 171.305 241.751C176.115 237.641 177.465 230.571 174.555 224.961C172.385 220.771 168.155 218.691 164.315 216.301C161.025 214.251 158.015 219.441 161.285 221.481V221.491Z" fill="white"/>
<path d="M82.0752 110.011C88.8552 112.391 95.8552 113.351 102.835 111.141C106.495 109.981 109.765 108.101 112.835 105.821C116.735 102.931 120.765 96.9205 126.105 100.021C129.455 101.961 132.475 96.7805 129.135 94.8405C121.405 90.3505 116.485 95.3405 110.575 100.031C102.275 106.621 93.4852 107.671 83.6652 104.221C80.0152 102.941 78.4453 108.731 82.0653 110.011H82.0752Z" fill="white"/>
<path d="M245.095 159.991C237.535 162.531 231.735 168.861 230.315 176.771C229.635 180.551 235.415 182.171 236.105 178.371C237.155 172.551 241.015 167.691 246.695 165.781C250.335 164.551 248.775 158.761 245.095 159.991Z" fill="white"/>
<path d="M66.0952 167.871C64.2652 162.431 59.7153 158.171 53.9953 157.141C50.2153 156.461 48.5952 162.241 52.3952 162.931C56.1952 163.621 59.1052 165.911 60.3052 169.471C61.5052 173.031 67.3252 171.551 66.0952 167.871Z" fill="white"/>
<path d="M224.705 99.8505C233.585 93.5305 242.465 87.2005 251.345 80.8805L247.245 79.8005C260.025 104.891 272.795 129.971 285.575 155.061L286.655 150.961C277.065 155.371 267.475 159.781 257.875 164.201L261.975 165.281C249.915 142.111 237.855 118.931 225.785 95.7605C224.005 92.3305 218.825 95.3605 220.605 98.7905C232.665 121.961 244.725 145.141 256.795 168.311C257.595 169.851 259.485 170.041 260.895 169.391C270.485 164.981 280.075 160.571 289.675 156.151C291.205 155.451 291.425 153.371 290.755 152.051C277.975 126.961 265.205 101.881 252.425 76.7905C251.735 75.4405 249.585 74.8105 248.325 75.7105C239.445 82.0305 230.565 88.3605 221.685 94.6805C218.565 96.9005 221.555 102.111 224.715 99.8605L224.705 99.8505Z" fill="white"/>
<path d="M78.4352 93.3905C69.5552 87.0705 60.6752 80.7405 51.7952 74.4205C50.5252 73.5205 48.3753 74.1505 47.6953 75.5005C34.9153 100.591 22.1452 125.671 9.36524 150.761C8.68524 152.091 8.90526 154.161 10.4453 154.861C20.0353 159.271 29.6252 163.681 39.2252 168.101C40.6452 168.751 42.5252 168.571 43.3252 167.021C55.3852 143.851 67.4452 120.671 79.5152 97.5005C81.2952 94.0805 76.1152 91.0405 74.3352 94.4705C62.2752 117.641 50.2152 140.821 38.1452 163.991L42.2452 162.911C32.6552 158.501 23.0652 154.091 13.4652 149.671L14.5452 153.771C27.3252 128.681 40.0952 103.601 52.8752 78.5105L48.7752 79.5905C57.6552 85.9105 66.5352 92.2405 75.4152 98.5605C78.5652 100.801 81.5653 95.6005 78.4453 93.3805L78.4352 93.3905Z" fill="white"/>
</svg>
