<svg width="300" height="300" viewBox="0 0 300 300" fill="none" xmlns="http://www.w3.org/2000/svg">
<path d="M99.4976 105.124C113.228 96.994 121.288 79.804 125.448 64.924L121.038 66.714C139.728 80.274 170.558 94.094 190.888 75.834H186.648C191.908 82.014 196.438 89.324 198.998 97.024C200.208 100.674 206.008 99.104 204.788 95.424C201.878 86.684 196.858 78.584 190.898 71.584C189.808 70.304 187.788 70.574 186.658 71.584C178.018 79.344 164.008 79.704 153.528 76.634C143.048 73.564 132.918 67.934 124.078 61.524C122.478 60.364 120.148 61.604 119.668 63.314C115.938 76.664 108.818 92.634 96.4776 99.934C93.1576 101.894 96.1676 107.084 99.5076 105.114L99.4976 105.124Z" fill="white"/>
<path d="M96.6576 106.084C91.3876 110.134 89.4676 116.464 92.1876 122.664C93.5576 125.794 95.9677 128.414 97.3377 131.474C98.8077 134.754 99.2076 138.854 100.548 142.304C105.738 155.554 115.188 167.444 128.058 173.904C155.288 187.584 185.568 172.094 197.408 145.644C199.078 141.904 200.518 138.004 201.438 134.004C202.248 130.454 204.518 127.814 206.228 124.564C207.938 121.314 209.428 118.304 207.908 114.824C206.648 111.924 203.968 110.404 200.878 110.404L203.878 113.404C207.148 82.884 204.958 34.034 167.888 25.494C153.518 22.184 137.738 24.754 123.958 29.484C115.828 32.274 111.768 36.724 106.878 43.394C103.308 48.264 99.1776 52.684 96.3476 58.074C88.1376 73.704 92.4077 93.024 95.5577 109.414C96.2877 113.204 102.068 111.594 101.348 107.814C98.7276 94.204 94.7976 77.704 100.098 64.204C101.908 59.584 104.888 55.514 107.948 51.644C111.748 46.834 114.988 40.574 120.428 37.474C125.868 34.374 132.888 32.904 139.008 31.684C146.088 30.264 153.398 29.614 160.608 30.334C178.578 32.144 189.518 44.194 194.418 60.954C199.318 77.714 199.758 95.984 197.888 113.384C197.718 115.004 199.398 116.384 200.888 116.384C204.648 116.384 198.018 126.624 197.448 127.554C195.988 129.944 195.688 132.534 194.898 135.234C192.808 142.364 189.448 149.174 184.848 155.024C175.898 166.404 162.348 173.744 147.688 173.074C133.118 172.404 120.168 163.694 112.188 151.774C107.878 145.334 105.358 138.404 103.388 130.974C101.748 124.824 92.1276 117.074 99.6976 111.264C102.718 108.944 99.7376 103.734 96.6676 106.084H96.6576Z" fill="white"/>
<path d="M184.778 187.174C195.748 201.194 213.568 198.864 228.708 204.504C241.378 209.234 248.498 221.174 249.088 234.224C249.408 241.254 249.848 248.284 250.228 255.314C250.548 261.254 250.358 267.224 250.358 273.164L253.358 270.164H46.0376L49.0376 273.164C49.0376 260.554 49.6276 248.114 50.2376 235.514C50.8176 223.554 55.2376 213.374 65.8176 206.944C72.3976 202.944 80.7376 202.044 88.1476 200.384C98.3676 198.094 107.728 195.974 114.608 187.174H110.368C122.838 200.064 135.318 212.944 147.788 225.834C148.898 226.984 150.918 226.994 152.028 225.834C164.358 212.944 176.688 200.064 189.028 187.174C191.698 184.384 187.458 180.134 184.788 182.934C172.458 195.824 160.128 208.704 147.788 221.594H152.028C139.558 208.704 127.078 195.824 114.608 182.934C113.578 181.874 111.358 181.664 110.368 182.934C98.5976 197.984 76.5276 192.654 61.6076 202.514C51.2776 209.334 44.9976 220.194 44.3476 232.564C43.9676 239.814 43.6076 247.064 43.2176 254.314C42.8776 260.594 43.0376 266.884 43.0376 273.164C43.0376 274.784 44.4076 276.164 46.0376 276.164H253.358C254.978 276.164 256.358 274.794 256.358 273.164C256.358 260.204 255.698 247.424 255.098 234.484C254.578 223.124 250.658 212.904 241.738 205.454C234.568 199.464 226.788 197.714 218.018 195.754C207.258 193.344 196.318 192.254 189.018 182.934C186.638 179.894 182.418 184.164 184.778 187.174Z" fill="white"/>
<path d="M92.6076 273.164C93.4376 263.264 94.2776 253.374 95.1076 243.474C95.4276 239.624 89.4276 239.644 89.1076 243.474C88.2776 253.374 87.4376 263.264 86.6076 273.164C86.2876 277.014 92.2876 276.994 92.6076 273.164Z" fill="white"/>
<path d="M212.778 273.164C211.948 263.264 211.108 253.374 210.278 243.474C209.958 239.654 203.958 239.624 204.278 243.474C205.108 253.374 205.948 263.264 206.778 273.164C207.098 276.984 213.098 277.014 212.778 273.164Z" fill="white"/>
<path d="M146.898 223.714V273.174C146.898 277.034 152.898 277.044 152.898 273.174V223.714C152.898 219.854 146.898 219.844 146.898 223.714Z" fill="white"/>
<path d="M125.308 168.924C121.848 175.534 118.388 182.144 114.938 188.754C113.148 192.174 118.328 195.204 120.118 191.784C123.578 185.174 127.038 178.564 130.488 171.954C132.278 168.534 127.098 165.504 125.308 168.924Z" fill="white"/>
<path d="M169.308 171.954C172.768 178.564 176.228 185.174 179.678 191.784C181.468 195.204 186.648 192.174 184.858 188.754C181.398 182.144 177.938 175.534 174.488 168.924C172.698 165.504 167.518 168.534 169.308 171.954Z" fill="white"/>
</svg>
