<svg width="300" height="300" viewBox="0 0 300 300" fill="none" xmlns="http://www.w3.org/2000/svg">
<path d="M127.681 201.842H173.201C177.061 201.842 177.071 195.842 173.201 195.842H127.681C123.821 195.842 123.811 201.842 127.681 201.842Z" fill="white"/>
<path d="M147.431 115.762V143.932C147.431 147.792 153.431 147.802 153.431 143.932V115.762C153.431 111.902 147.431 111.892 147.431 115.762Z" fill="white"/>
<path d="M147.431 209.722V246.562C147.431 250.422 153.431 250.432 153.431 246.562V209.722C153.431 205.862 147.431 205.852 147.431 209.722Z" fill="white"/>
<path d="M164.601 209.722V231.322C164.601 235.182 170.601 235.192 170.601 231.322V209.722C170.601 205.862 164.601 205.852 164.601 209.722Z" fill="white"/>
<path d="M130.271 209.722V231.322C130.271 235.182 136.271 235.192 136.271 231.322V209.722C136.271 205.862 130.271 205.852 130.271 209.722Z" fill="white"/>
<path d="M167.131 82.3519C166.821 91.4019 159.761 99.1019 150.431 99.0519C141.101 99.0019 133.731 91.4819 133.731 82.3519C133.731 73.2219 140.921 66.0419 149.751 65.6719C159.331 65.2719 166.811 73.0019 167.121 82.3519C167.251 86.2019 173.251 86.2219 173.121 82.3519C172.701 70.0119 163.091 59.6519 150.421 59.6519C138.071 59.6519 127.721 70.0019 127.721 82.3519C127.721 94.7019 138.071 105.052 150.421 105.052C162.771 105.052 172.701 94.7019 173.121 82.3519C173.251 78.4919 167.251 78.4919 167.121 82.3519H167.131Z" fill="white"/>
<path d="M175.781 188.442C182.021 174.152 186.511 159.152 190.091 143.992C193.151 131.042 195.851 117.742 196.721 104.442C197.411 93.9219 195.241 83.3219 192.331 73.2619C188.731 60.8119 183.701 48.3519 176.451 37.5519C171.101 29.5819 163.641 20.9319 153.641 19.2719C143.641 17.6119 135.471 23.8119 129.501 30.8119C121.461 40.2319 116.001 51.7619 111.781 63.3219C107.561 74.8819 104.521 86.2219 104.031 98.0219C103.491 111.132 106.561 124.792 109.311 137.522C113.071 154.892 117.961 172.132 125.081 188.442C125.491 189.382 126.711 189.932 127.671 189.932H173.181C177.041 189.932 177.051 183.932 173.181 183.932H127.671L130.261 185.422C119.621 161.042 112.611 133.242 110.311 106.722C108.511 85.9319 116.201 63.3119 126.511 45.5219C131.111 37.5919 137.931 27.3219 147.611 25.2919C156.891 23.3419 164.701 31.5119 169.641 38.2819C176.621 47.8419 181.461 58.9919 185.101 70.1919C188.241 79.8719 190.921 90.2319 190.861 100.472C190.781 113.052 188.011 125.842 185.281 138.062C181.691 154.162 177.191 170.262 170.581 185.402C169.051 188.902 174.221 191.962 175.761 188.432L175.781 188.442Z" fill="white"/>
<path d="M187.091 143.092C198.181 144.732 206.191 153.302 206.481 164.622C206.551 167.272 206.481 169.922 206.481 172.572C206.481 175.492 207.171 179.432 206.481 182.282C205.851 184.882 204.801 184.142 202.871 183.022L194.431 178.172C189.711 175.462 185.001 172.752 180.281 170.032C176.931 168.102 173.901 173.282 177.251 175.212C183.721 178.932 190.191 182.652 196.661 186.372C198.861 187.632 201.431 189.652 203.961 190.242C208.561 191.312 212.161 187.742 212.481 183.352C212.981 176.402 213.031 168.752 212.331 161.802C211.051 149.182 201.151 139.142 188.691 137.302C184.911 136.742 183.281 142.522 187.091 143.092Z" fill="white"/>
<path d="M120.591 170.042C116.021 172.672 111.441 175.302 106.871 177.932L98.0108 183.032C96.0708 184.152 95.0208 184.842 94.4008 182.292C93.7108 179.442 94.4008 175.512 94.4008 172.582C94.4008 169.972 94.3308 167.342 94.4008 164.732C94.7008 153.362 102.611 144.752 113.791 143.102C117.601 142.542 115.981 136.762 112.191 137.312C99.7308 139.152 89.8208 149.192 88.5508 161.812C87.8508 168.752 87.9008 176.422 88.4008 183.362C88.7208 187.752 92.3208 191.322 96.9208 190.252C99.4508 189.662 102.031 187.642 104.221 186.382C110.691 182.662 117.161 178.942 123.631 175.222C126.981 173.302 123.961 168.112 120.601 170.042H120.591Z" fill="white"/>
<path d="M105.671 265.442C96.2008 250.412 106.101 231.222 123.931 230.742C127.781 230.642 127.801 224.642 123.931 224.742C101.731 225.342 88.5608 249.532 100.481 268.472C102.531 271.732 107.731 268.722 105.661 265.442H105.671Z" fill="white"/>
<path d="M61.0008 278.042C61.4008 258.132 79.7008 244.062 99.0608 248.492C102.821 249.352 104.421 243.572 100.661 242.702C77.4808 237.402 55.4808 254.132 55.0008 278.042C54.9208 281.902 60.9208 281.902 61.0008 278.042Z" fill="white"/>
<path d="M200.381 268.472C212.311 249.532 199.141 225.342 176.931 224.742C173.071 224.642 173.071 230.642 176.931 230.742C194.761 231.222 204.661 250.412 195.191 265.442C193.131 268.722 198.321 271.732 200.371 268.472H200.381Z" fill="white"/>
<path d="M201.811 248.492C221.171 244.062 239.471 258.132 239.871 278.042C239.951 281.902 245.951 281.912 245.871 278.042C245.391 254.132 223.391 237.402 200.211 242.712C196.451 243.572 198.041 249.362 201.811 248.502V248.492Z" fill="white"/>
</svg>
