<svg width="300" height="300" viewBox="0 0 300 300" fill="none" xmlns="http://www.w3.org/2000/svg">
<path d="M149.672 182.761C115.476 182.761 87.86 154.386 87.6102 120.477C87.4621 101.126 87.6102 81.7649 87.6102 62.4134V39.7857L84.8338 42.5621H214.511L211.734 39.7857V94.666C211.734 102.903 211.753 111.139 211.734 119.376C211.706 133.082 207.903 146.27 199.74 157.394C188.051 173.349 169.348 182.567 149.663 182.761C146.091 182.798 146.081 188.351 149.663 188.314C185.09 187.972 215.084 160.124 217.167 124.549C218.324 104.8 217.278 84.7264 217.278 64.9492V39.7764C217.278 38.2771 216.01 37 214.501 37H84.8246C83.3253 37 82.0482 38.2679 82.0482 39.7764V98.8954C82.0482 106.142 81.9834 113.397 82.0482 120.644C82.1963 137.145 88.0637 153.026 98.9842 165.446C111.682 179.902 130.441 188.314 149.672 188.314C153.244 188.314 153.254 182.761 149.672 182.761Z" fill="white"/>
<path d="M215.214 59.3778C223.09 59.9886 231.03 58.8781 238.906 58.693C245.866 58.5264 256.194 58.0637 261.321 63.8108C264.366 67.2258 264.236 72.0382 263.588 76.2954C262.644 82.5331 260.756 88.743 258.517 94.6289C254.297 105.725 247.966 116.118 239.878 124.818C231.132 134.211 220.378 141.513 208.18 145.604C204.812 146.733 206.255 152.101 209.661 150.962C233.899 142.827 252.455 123.254 262.311 99.9874C265.125 93.3518 267.383 86.3923 268.688 79.2939C269.622 74.2224 270.159 68.8454 267.975 64.0052C264.384 56.0554 255.324 53.8805 247.393 53.2975C236.657 52.5108 225.931 54.6579 215.214 53.8343C211.651 53.5566 211.669 59.1094 215.214 59.3871V59.3778Z" fill="white"/>
<path d="M84.1306 53.825C74.737 54.5562 65.2972 52.9458 55.8852 53.1217C47.8892 53.2698 38.0329 54.2878 32.9243 61.3121C26.1406 70.6408 31.4806 85.2169 34.9697 94.7955C39.4674 107.114 46.2048 118.599 55.0801 128.27C64.5569 138.589 76.3751 146.501 89.6741 150.962C93.0706 152.101 94.5235 146.742 91.1548 145.604C69.2027 138.237 52.3592 120.561 42.9472 99.7468C40.4299 94.1847 38.4772 88.3728 37.0242 82.4498C35.784 77.406 34.0996 71.0665 36.4966 66.0782C39.8283 59.1372 49.7678 58.7578 56.3849 58.6745C65.6211 58.5542 74.9036 60.0997 84.1213 59.3871C87.6566 59.1095 87.6936 53.5566 84.1213 53.8343L84.1306 53.825Z" fill="white"/>
<path d="M202.803 256.447H96.5503L99.3267 259.224V244.629C99.3267 237.993 100.16 231.08 108.526 230.516C115.125 230.071 121.899 230.516 128.507 230.516C149.089 230.516 169.792 229.849 190.365 230.516C197.76 230.756 200.036 236.365 200.036 242.75V259.224C200.036 262.796 205.589 262.805 205.589 259.224C205.589 248.71 208.856 232.32 197.426 226.536C194.15 224.879 190.735 224.963 187.209 224.963H130.959C123.158 224.963 115.078 224.343 107.295 225.028C90.2664 226.527 93.7832 247.396 93.7832 259.224C93.7832 260.723 95.0511 262 96.5596 262C127.6 262 158.64 262 189.69 262H202.813C206.385 262 206.394 256.447 202.813 256.447H202.803Z" fill="white"/>
<path d="M132.69 227.739V183.27C132.69 179.698 127.137 179.689 127.137 183.27V227.739C127.137 231.311 132.69 231.321 132.69 227.739Z" fill="white"/>
<path d="M166.645 183.27V227.739C166.645 231.311 172.198 231.321 172.198 227.739V183.27C172.198 179.698 166.645 179.689 166.645 183.27Z" fill="white"/>
</svg>
