<?xml version="1.0" encoding="utf-8"?>
<!-- Generator: Adobe Illustrator 25.1.0, SVG Export Plug-In . SVG Version: 6.00 Build 0)  -->
<svg version="1.1" id="Layer_1" xmlns="http://www.w3.org/2000/svg" xmlns:xlink="http://www.w3.org/1999/xlink" x="0px" y="0px"
	 viewBox="0 0 240 38" style="enable-background:new 0 0 240 38;" xml:space="preserve">
<style type="text/css">
	.st0{fill:url(#SVGID_1_);}
	.st1{fill:url(#SVGID_2_);}
	.st2{fill:url(#SVGID_3_);}
	.st3{fill:url(#SVGID_4_);}
	.st4{fill:url(#SVGID_5_);}
	.st5{fill:url(#SVGID_6_);}
	.st6{fill:url(#SVGID_7_);}
	.st7{fill:url(#SVGID_8_);}
	.st8{fill:url(#SVGID_9_);}
	.st9{fill:url(#SVGID_10_);}
	.st10{fill:url(#SVGID_11_);}
	.st11{fill:#567A92;}
</style>
<g>
	<g>
		<linearGradient id="SVGID_1_" gradientUnits="userSpaceOnUse" x1="-12.7203" y1="23.8772" x2="24.4555" y2="-13.2986">
			<stop  offset="0" style="stop-color:#567A92"/>
			<stop  offset="0.8364" style="stop-color:#A3C9E8"/>
		</linearGradient>
		<rect x="0.5" y="0.28" class="st0" width="10.38" height="10.38"/>
		<linearGradient id="SVGID_2_" gradientUnits="userSpaceOnUse" x1="-5.9839" y1="30.6134" x2="31.1919" y2="-6.5624">
			<stop  offset="0" style="stop-color:#567A92"/>
			<stop  offset="0.8364" style="stop-color:#A3C9E8"/>
		</linearGradient>
		<rect x="13.97" y="0.28" class="st1" width="10.38" height="10.38"/>
		<linearGradient id="SVGID_3_" gradientUnits="userSpaceOnUse" x1="14.228" y1="50.8251" x2="51.4038" y2="13.6493">
			<stop  offset="0" style="stop-color:#567A92"/>
			<stop  offset="0.8364" style="stop-color:#A3C9E8"/>
		</linearGradient>
		<rect x="27.45" y="27.23" class="st2" width="10.38" height="10.38"/>
		<g>
			<linearGradient id="SVGID_4_" gradientUnits="userSpaceOnUse" x1="7.4915" y1="44.0888" x2="44.6673" y2="6.913">
				<stop  offset="0" style="stop-color:#567A92"/>
				<stop  offset="0.8364" style="stop-color:#A3C9E8"/>
			</linearGradient>
			<rect x="13.97" y="27.23" class="st3" width="10.38" height="10.38"/>
			<linearGradient id="SVGID_5_" gradientUnits="userSpaceOnUse" x1="0.7552" y1="37.3525" x2="37.931" y2="0.1767">
				<stop  offset="0" style="stop-color:#567A92"/>
				<stop  offset="0.8364" style="stop-color:#A3C9E8"/>
			</linearGradient>
			<rect x="0.5" y="27.23" class="st4" width="10.38" height="10.38"/>
		</g>
		<linearGradient id="SVGID_6_" gradientUnits="userSpaceOnUse" x1="-5.9824" y1="30.6147" x2="31.1931" y2="-6.5608">
			<stop  offset="0" style="stop-color:#567A92"/>
			<stop  offset="0.8364" style="stop-color:#A3C9E8"/>
		</linearGradient>
		<rect x="0.5" y="13.76" class="st5" width="10.38" height="10.38"/>
		<linearGradient id="SVGID_7_" gradientUnits="userSpaceOnUse" x1="0.754" y1="37.351" x2="37.9295" y2="0.1754">
			<stop  offset="0" style="stop-color:#567A92"/>
			<stop  offset="0.8364" style="stop-color:#A3C9E8"/>
		</linearGradient>
		<rect x="13.97" y="13.76" class="st6" width="10.38" height="10.38"/>
		<g>
			<linearGradient id="SVGID_8_" gradientUnits="userSpaceOnUse" x1="0.7525" y1="37.3499" x2="37.9283" y2="0.1741">
				<stop  offset="0" style="stop-color:#567A92"/>
				<stop  offset="0.8364" style="stop-color:#A3C9E8"/>
			</linearGradient>
			<rect x="27.45" y="0.28" class="st7" width="10.38" height="10.38"/>
			<linearGradient id="SVGID_9_" gradientUnits="userSpaceOnUse" x1="7.4903" y1="44.0874" x2="44.6659" y2="6.9118">
				<stop  offset="0" style="stop-color:#567A92"/>
				<stop  offset="0.8364" style="stop-color:#A3C9E8"/>
			</linearGradient>
			<rect x="27.45" y="13.76" class="st8" width="10.38" height="10.38"/>
		</g>
		<g>
			<linearGradient id="SVGID_10_" gradientUnits="userSpaceOnUse" x1="4.1233" y1="40.7206" x2="41.2991" y2="3.5448">
				<stop  offset="0" style="stop-color:#567A92"/>
				<stop  offset="0.8364" style="stop-color:#A3C9E8"/>
			</linearGradient>
			<path class="st9" d="M10.87,35.63c0-0.86,0.7-1.55,1.55-1.55c0.86,0,1.55,0.7,1.55,1.55h0.7v-6.43h-0.7
				c0,0.86-0.7,1.55-1.55,1.55c-0.86,0-1.55-0.7-1.55-1.55h-0.7v6.43H10.87z"/>
		</g>
		<g>
			<linearGradient id="SVGID_11_" gradientUnits="userSpaceOnUse" x1="-2.6136" y1="33.9837" x2="34.5622" y2="-3.1921">
				<stop  offset="0" style="stop-color:#567A92"/>
				<stop  offset="0.8364" style="stop-color:#A3C9E8"/>
			</linearGradient>
			<path class="st10" d="M2.47,24.13c0.86,0,1.55,0.7,1.55,1.55s-0.7,1.55-1.55,1.55v0.7H8.9v-0.7c-0.86,0-1.55-0.7-1.55-1.55
				s0.7-1.55,1.55-1.55v-0.7H2.47V24.13z"/>
		</g>
	</g>
	<g>
		<g>
			<path class="st11" d="M44.33,16.73V0.57h3v16.17H44.33z"/>
			<path class="st11" d="M49.38,9.94V7.36h6.06v2.58H49.38z"/>
			<path class="st11" d="M65.97,17.02c-4.75,0-8.51-3.7-8.51-8.36c0-4.73,3.72-8.38,8.53-8.38c4.62,0,8.31,3.74,8.31,8.36
				C74.3,13.36,70.67,17.02,65.97,17.02z M65.94,3.17c-3.11,0-5.47,2.36-5.47,5.49c0,3.06,2.41,5.47,5.47,5.47
				c3.06,0,5.34-2.34,5.34-5.45C71.28,5.58,68.94,3.17,65.94,3.17z"/>
			<path class="st11" d="M85.74,16.73L78.98,4.98v11.75h-3V0.57h3.41l6.69,11.77V0.57h3v16.17H85.74z"/>
		</g>
		<g>
			<path class="st11" d="M50.76,37.72c-1.02,0-1.95-0.19-2.8-0.56c-0.85-0.37-1.6-0.88-2.22-1.53c-0.63-0.65-1.12-1.41-1.47-2.29
				c-0.35-0.88-0.53-1.82-0.53-2.82v-0.04c0-0.99,0.18-1.92,0.53-2.8c0.35-0.88,0.84-1.65,1.47-2.31c0.63-0.66,1.37-1.18,2.24-1.56
				c0.87-0.38,1.81-0.57,2.84-0.57c0.64,0,1.22,0.05,1.73,0.16c0.51,0.11,0.99,0.26,1.43,0.45c0.44,0.19,0.85,0.43,1.22,0.7
				c0.37,0.27,0.73,0.58,1.08,0.91l-1.08,1.16c-0.6-0.56-1.24-1.02-1.93-1.38c-0.69-0.36-1.51-0.54-2.47-0.54
				c-0.77,0-1.49,0.15-2.15,0.44c-0.66,0.29-1.23,0.7-1.72,1.22c-0.49,0.52-0.87,1.13-1.14,1.83c-0.27,0.7-0.41,1.45-0.41,2.25v0.04
				c0,0.81,0.14,1.57,0.41,2.27c0.27,0.7,0.65,1.31,1.14,1.83c0.49,0.52,1.06,0.93,1.72,1.23c0.66,0.3,1.38,0.45,2.15,0.45
				c0.96,0,1.79-0.18,2.48-0.53c0.69-0.35,1.37-0.85,2.04-1.49l1.04,1.02c-0.36,0.37-0.74,0.71-1.13,1.01
				c-0.39,0.3-0.82,0.56-1.27,0.77c-0.46,0.21-0.94,0.38-1.46,0.5C51.98,37.66,51.4,37.72,50.76,37.72z"/>
			<path class="st11" d="M65.63,37.72c-1.07,0-2.04-0.19-2.91-0.58c-0.87-0.39-1.62-0.91-2.25-1.57c-0.63-0.66-1.11-1.43-1.45-2.3
				c-0.34-0.87-0.51-1.79-0.51-2.75v-0.04c0-0.96,0.17-1.88,0.52-2.76c0.35-0.88,0.83-1.65,1.46-2.31c0.63-0.66,1.38-1.19,2.26-1.58
				c0.88-0.39,1.86-0.59,2.92-0.59c1.07,0,2.04,0.19,2.91,0.58c0.87,0.39,1.62,0.91,2.25,1.57c0.63,0.66,1.11,1.43,1.45,2.3
				c0.34,0.87,0.51,1.79,0.51,2.75c0.01,0.01,0.01,0.03,0,0.04c0,0.96-0.17,1.88-0.52,2.76c-0.35,0.88-0.83,1.65-1.46,2.31
				c-0.63,0.66-1.38,1.19-2.26,1.58C67.67,37.52,66.7,37.72,65.63,37.72z M65.67,36.26c0.8,0,1.54-0.15,2.21-0.45
				c0.67-0.3,1.25-0.71,1.73-1.23c0.48-0.52,0.86-1.13,1.13-1.82c0.27-0.69,0.41-1.44,0.41-2.24v-0.04c0-0.8-0.14-1.55-0.41-2.25
				c-0.28-0.7-0.66-1.31-1.15-1.83c-0.49-0.52-1.08-0.93-1.75-1.24c-0.67-0.31-1.41-0.46-2.21-0.46c-0.8,0-1.54,0.15-2.21,0.45
				c-0.67,0.3-1.25,0.71-1.73,1.23c-0.48,0.52-0.86,1.13-1.13,1.82c-0.27,0.69-0.41,1.44-0.41,2.24v0.04c0,0.8,0.14,1.55,0.41,2.25
				c0.27,0.7,0.66,1.31,1.15,1.83c0.49,0.52,1.08,0.93,1.75,1.24C64.13,36.11,64.87,36.26,65.67,36.26z"/>
			<path class="st11" d="M76.14,23.47h1.6l5.1,7.65l5.1-7.65h1.6v14.01h-1.58V26.13l-5.1,7.51h-0.08l-5.1-7.49v11.33h-1.54V23.47z"
				/>
			<path class="st11" d="M93.51,23.47h1.6l5.1,7.65l5.1-7.65h1.6v14.01h-1.58V26.13l-5.1,7.51h-0.08l-5.1-7.49v11.33h-1.54V23.47z"
				/>
			<path class="st11" d="M116.49,37.7c-0.87,0-1.66-0.13-2.37-0.39c-0.71-0.26-1.33-0.65-1.84-1.16c-0.51-0.51-0.91-1.15-1.19-1.91
				c-0.28-0.76-0.42-1.63-0.42-2.62v-8.15h1.58v8.05c0,1.52,0.38,2.69,1.13,3.5c0.75,0.81,1.81,1.22,3.15,1.22
				c1.3,0,2.32-0.39,3.08-1.16c0.76-0.77,1.14-1.93,1.14-3.46v-8.15h1.58v8.03c0,1.03-0.14,1.93-0.42,2.7
				c-0.28,0.77-0.68,1.42-1.19,1.94c-0.51,0.52-1.13,0.91-1.84,1.17C118.16,37.57,117.37,37.7,116.49,37.7z"/>
			<path class="st11" d="M126.07,23.47h1.48l8.83,11.23V23.47h1.54v14.01h-1.26l-9.05-11.49v11.49h-1.54V23.47z"/>
			<path class="st11" d="M142.03,23.47h1.58v14.01h-1.58V23.47z"/>
			<path class="st11" d="M154.12,37.72c-1.01,0-1.95-0.19-2.8-0.56c-0.86-0.37-1.6-0.88-2.22-1.53c-0.63-0.65-1.12-1.41-1.47-2.29
				c-0.35-0.88-0.53-1.82-0.53-2.82v-0.04c0-0.99,0.18-1.92,0.53-2.8c0.35-0.88,0.84-1.65,1.47-2.31c0.63-0.66,1.37-1.18,2.24-1.56
				c0.87-0.38,1.82-0.57,2.84-0.57c0.64,0,1.22,0.05,1.73,0.16c0.52,0.11,0.99,0.26,1.43,0.45c0.44,0.19,0.85,0.43,1.22,0.7
				c0.37,0.27,0.73,0.58,1.08,0.91l-1.08,1.16c-0.6-0.56-1.25-1.02-1.93-1.38c-0.69-0.36-1.51-0.54-2.47-0.54
				c-0.78,0-1.49,0.15-2.15,0.44c-0.66,0.29-1.24,0.7-1.72,1.22c-0.49,0.52-0.87,1.13-1.14,1.83c-0.28,0.7-0.41,1.45-0.41,2.25v0.04
				c0,0.81,0.14,1.57,0.41,2.27c0.27,0.7,0.65,1.31,1.14,1.83c0.48,0.52,1.06,0.93,1.72,1.23c0.66,0.3,1.37,0.45,2.15,0.45
				c0.96,0,1.79-0.18,2.48-0.53c0.69-0.35,1.37-0.85,2.04-1.49l1.04,1.02c-0.36,0.37-0.74,0.71-1.13,1.01
				c-0.4,0.3-0.82,0.56-1.27,0.77c-0.45,0.21-0.94,0.38-1.46,0.5C155.34,37.66,154.76,37.72,154.12,37.72z"/>
			<path class="st11" d="M167.67,23.37h1.48l6.39,14.11h-1.7l-1.64-3.7h-7.62l-1.66,3.7h-1.62L167.67,23.37z M171.57,32.36
				l-3.18-7.15l-3.2,7.15H171.57z"/>
			<path class="st11" d="M182,24.93h-4.7v-1.46h10.99v1.46h-4.7v12.55H182V24.93z"/>
			<path class="st11" d="M191.41,23.47h1.58v14.01h-1.58V23.47z"/>
			<path class="st11" d="M203.59,37.72c-1.06,0-2.04-0.19-2.91-0.58c-0.87-0.39-1.62-0.91-2.25-1.57c-0.63-0.66-1.11-1.43-1.45-2.3
				c-0.34-0.87-0.51-1.79-0.51-2.75v-0.04c0-0.96,0.17-1.88,0.52-2.76c0.35-0.88,0.83-1.65,1.46-2.31c0.62-0.66,1.38-1.19,2.26-1.58
				c0.88-0.39,1.85-0.59,2.92-0.59s2.04,0.19,2.91,0.58c0.88,0.39,1.63,0.91,2.25,1.57c0.63,0.66,1.11,1.43,1.45,2.3
				c0.34,0.87,0.51,1.79,0.51,2.75c0.01,0.01,0.01,0.03,0,0.04c0,0.96-0.17,1.88-0.52,2.76c-0.35,0.88-0.83,1.65-1.46,2.31
				c-0.63,0.66-1.38,1.19-2.26,1.58C205.64,37.52,204.66,37.72,203.59,37.72z M203.63,36.26c0.8,0,1.54-0.15,2.21-0.45
				c0.67-0.3,1.25-0.71,1.73-1.23c0.48-0.52,0.86-1.13,1.13-1.82c0.27-0.69,0.41-1.44,0.41-2.24v-0.04c0-0.8-0.14-1.55-0.41-2.25
				c-0.28-0.7-0.66-1.31-1.15-1.83c-0.49-0.52-1.08-0.93-1.75-1.24c-0.67-0.31-1.41-0.46-2.21-0.46c-0.8,0-1.54,0.15-2.21,0.45
				c-0.67,0.3-1.25,0.71-1.73,1.23c-0.48,0.52-0.86,1.13-1.13,1.82c-0.27,0.69-0.41,1.44-0.41,2.24v0.04c0,0.8,0.14,1.55,0.41,2.25
				c0.27,0.7,0.66,1.31,1.15,1.83c0.5,0.52,1.08,0.93,1.75,1.24C202.1,36.11,202.83,36.26,203.63,36.26z"/>
			<path class="st11" d="M214.1,23.47h1.48l8.82,11.23V23.47h1.54v14.01h-1.26l-9.05-11.49v11.49h-1.54V23.47z"/>
			<path class="st11" d="M234.74,37.68c-1.12,0-2.15-0.18-3.07-0.55c-0.93-0.37-1.81-0.93-2.65-1.69l0.98-1.16
				c0.73,0.67,1.47,1.16,2.22,1.49c0.74,0.33,1.61,0.49,2.58,0.49c0.95,0,1.71-0.22,2.28-0.67c0.56-0.45,0.85-1.02,0.85-1.71v-0.04
				c0-0.32-0.05-0.61-0.16-0.87c-0.11-0.26-0.3-0.5-0.56-0.71c-0.27-0.21-0.64-0.41-1.11-0.58c-0.47-0.17-1.08-0.34-1.81-0.5
				c-0.8-0.17-1.5-0.37-2.1-0.6c-0.59-0.23-1.09-0.5-1.47-0.82c-0.39-0.32-0.68-0.69-0.87-1.12c-0.18-0.43-0.28-0.93-0.28-1.5v-0.04
				c0-0.55,0.11-1.05,0.34-1.52c0.23-0.47,0.55-0.87,0.96-1.21c0.41-0.34,0.9-0.61,1.46-0.8c0.56-0.19,1.17-0.29,1.84-0.29
				c1.03,0,1.92,0.14,2.69,0.43c0.77,0.29,1.51,0.72,2.23,1.29l-0.92,1.22c-0.65-0.53-1.31-0.92-1.97-1.16
				c-0.66-0.24-1.35-0.36-2.07-0.36c-0.92,0-1.65,0.22-2.18,0.65c-0.53,0.43-0.8,0.97-0.8,1.61v0.04c0,0.34,0.05,0.63,0.16,0.89
				c0.11,0.26,0.3,0.5,0.58,0.72c0.28,0.22,0.66,0.42,1.16,0.6c0.49,0.18,1.13,0.35,1.9,0.51c1.56,0.35,2.71,0.83,3.45,1.44
				c0.74,0.61,1.11,1.45,1.11,2.52v0.04c0,0.6-0.12,1.14-0.35,1.63c-0.24,0.49-0.56,0.9-0.98,1.25c-0.42,0.35-0.92,0.61-1.51,0.8
				C236.07,37.59,235.43,37.68,234.74,37.68z"/>
		</g>
	</g>
</g>
</svg>
