<?xml version="1.0" encoding="utf-8"?>
<!-- Generator: Adobe Illustrator 27.7.0, SVG Export Plug-In . SVG Version: 6.00 Build 0)  -->
<svg version="1.1" id="Layer_1" xmlns="http://www.w3.org/2000/svg" xmlns:xlink="http://www.w3.org/1999/xlink" x="0px" y="0px"
	 viewBox="0 0 32 32" style="enable-background:new 0 0 32 32;" xml:space="preserve">
<style type="text/css">
	.st0{fill:#6366F1;}
	.st1{fill:none;stroke:#6366F1;stroke-linecap:round;stroke-linejoin:round;stroke-miterlimit:10;}
</style>
<g>
	<path class="st0" d="M17.78,12.85H3.88c-0.27,0-0.48,0.22-0.48,0.48c0,0.27,0.22,0.48,0.48,0.48h13.9c0.27,0,0.48-0.22,0.48-0.48
		C18.27,13.07,18.05,12.85,17.78,12.85z"/>
	<path class="st0" d="M17.78,15.13H3.88c-0.27,0-0.48,0.22-0.48,0.48c0,0.27,0.22,0.48,0.48,0.48h13.9c0.27,0,0.48-0.22,0.48-0.48
		C18.27,15.35,18.05,15.13,17.78,15.13z"/>
	<path class="st0" d="M17.78,17.41H3.88c-0.27,0-0.48,0.22-0.48,0.48c0,0.27,0.22,0.48,0.48,0.48h13.9c0.27,0,0.48-0.22,0.48-0.48
		C18.27,17.63,18.05,17.41,17.78,17.41z"/>
	<path class="st0" d="M17.78,19.69H3.88c-0.27,0-0.48,0.22-0.48,0.48s0.22,0.48,0.48,0.48h13.9c0.27,0,0.48-0.22,0.48-0.48
		S18.05,19.69,17.78,19.69z"/>
	<path class="st0" d="M28.12,22.03H17.78c-0.27,0-0.48,0.22-0.48,0.48c0,0.27,0.22,0.48,0.48,0.48h10.34c0.27,0,0.48-0.22,0.48-0.48
		C28.6,22.24,28.39,22.03,28.12,22.03z"/>
	<path class="st0" d="M28.12,24.31H17.78c-0.27,0-0.48,0.22-0.48,0.48c0,0.27,0.22,0.48,0.48,0.48h10.34c0.27,0,0.48-0.22,0.48-0.48
		C28.6,24.52,28.39,24.31,28.12,24.31z"/>
	<path class="st0" d="M28.12,26.58H17.78c-0.27,0-0.48,0.22-0.48,0.48s0.22,0.48,0.48,0.48h10.34c0.27,0,0.48-0.22,0.48-0.48
		S28.39,26.58,28.12,26.58z"/>
	<path class="st0" d="M28.12,28.86H17.78c-0.27,0-0.48,0.22-0.48,0.48s0.22,0.48,0.48,0.48h10.34c0.27,0,0.48-0.22,0.48-0.48
		S28.39,28.86,28.12,28.86z"/>
	<path class="st0" d="M28.57,12.98c-0.01-0.03-0.03-0.06-0.05-0.09c-0.01-0.02-0.02-0.04-0.03-0.06c-0.04-0.04-0.07-0.05-0.1-0.07
		c-0.02-0.02-0.04-0.04-0.07-0.05c-0.02-0.01-0.05-0.01-0.08-0.02c-0.04-0.01-0.07-0.02-0.11-0.02c-0.02,0-8.15,0-8.15,0
		c-0.05,0-0.09,0.02-0.12,0.02c-0.03,0.01-0.05,0.01-0.08,0.02c-0.03,0.01-0.05,0.03-0.07,0.05c-0.03,0.02-0.06,0.04-0.08,0.06
		c-0.03,0.03-0.03,0.05-0.05,0.07c-0.02,0.03-0.04,0.06-0.05,0.09c-0.01,0.03-0.02,0.07-0.02,0.1c0,0.02-0.01,0.04-0.01,0.07v7.08
		c0,0.02,0.01,0.04,0.01,0.07c0,0.03,0.01,0.07,0.02,0.1c0.01,0.03,0.03,0.06,0.05,0.09c0.01,0.02,0.02,0.04,0.03,0.06
		c0.05,0.05,0.09,0.08,0.14,0.1c0.01,0.01,0.02,0.02,0.04,0.02c0.06,0.03,0.12,0.04,0.19,0.04h8.13c0.07,0,0.13-0.02,0.19-0.04
		c0.01-0.01,0.02-0.02,0.04-0.02c0.05-0.03,0.09-0.05,0.12-0.09c0.03-0.03,0.03-0.05,0.05-0.07c0.02-0.03,0.04-0.06,0.05-0.09
		c0.01-0.03,0.02-0.07,0.02-0.1c0-0.02,0.01-0.04,0.01-0.07v-7.08c0-0.02-0.01-0.04-0.01-0.07C28.59,13.04,28.58,13.01,28.57,12.98z
		 M26.83,13.63l-2.78,2.42l-2.78-2.42H26.83z M20.47,14.21l2.85,2.48l-2.85,2.48V14.21z M21.28,19.74l2.78-2.42l2.78,2.42H21.28z
		 M27.64,19.17l-2.85-2.48l2.85-2.48V19.17z"/>
	<path class="st0" d="M28.58,2.33c-0.02-0.05-0.04-0.08-0.06-0.1c-0.02-0.02-0.03-0.05-0.05-0.07c-0.02-0.02-0.05-0.04-0.07-0.05
		c-0.03-0.02-0.05-0.04-0.08-0.05c-0.02-0.01-0.05-0.01-0.08-0.02C28.21,2.02,28.17,2,28.14,2C28.12,2,3.88,2,3.88,2
		C3.82,2,3.79,2.02,3.75,2.03C3.73,2.03,3.7,2.04,3.68,2.05C3.65,2.06,3.62,2.08,3.6,2.1C3.57,2.12,3.55,2.13,3.53,2.15
		C3.51,2.17,3.5,2.2,3.48,2.22C3.46,2.25,3.44,2.28,3.43,2.31C3.41,2.35,3.42,2.38,3.41,2.41c0,0.03-0.02,0.05-0.02,0.08v8.19
		c0,0.03,0.01,0.05,0.02,0.08c0,0.03,0,0.05,0.01,0.08c0.02,0.04,0.03,0.05,0.04,0.07c0.02,0.04,0.04,0.07,0.06,0.1
		c0.01,0.01,0.03,0.03,0.04,0.04c0.03,0.03,0.06,0.05,0.1,0.06c0.02,0.01,0.03,0.02,0.05,0.02c0.05,0.02,0.11,0.03,0.17,0.03h24.24
		c0.06,0,0.12-0.01,0.17-0.03c0.02-0.01,0.03-0.02,0.05-0.02c0.03-0.02,0.07-0.04,0.1-0.06c0.01-0.01,0.03-0.03,0.04-0.04
		c0.03-0.03,0.05-0.06,0.06-0.1c0.01-0.02,0.02-0.03,0.03-0.05c0.02-0.04,0.01-0.07,0.02-0.1c0-0.03,0.02-0.05,0.02-0.08V2.48
		c0-0.03-0.01-0.05-0.02-0.08C28.58,2.38,28.59,2.35,28.58,2.33z M25.18,2.97L16,6.07l-9.18-3.1H25.18z M4.36,3.16l10.13,3.42
		L4.36,10V3.16z M6.82,10.19L16,7.09l9.18,3.1H6.82z M27.64,10L17.51,6.58l10.13-3.42V10z"/>
	<path class="st0" d="M3.71,29.97C3.77,29.99,3.82,30,3.88,30c0,0,11.61,0,11.61,0c0.06,0,0.11-0.01,0.17-0.03
		c0.01,0,0.02-0.01,0.04-0.01c0.05-0.02,0.09-0.05,0.13-0.09c0.04-0.04,0.06-0.06,0.08-0.09c0.01-0.01,0.01-0.02,0.01-0.03
		c0.02-0.03,0.02-0.06,0.03-0.09c0.01-0.03,0.02-0.06,0.02-0.09c0-0.01,0.01-0.02,0.01-0.03v-7.08c0-0.01-0.01-0.02-0.01-0.03
		c0-0.03-0.01-0.06-0.02-0.09c-0.01-0.03-0.02-0.06-0.03-0.09c-0.01-0.01-0.01-0.02-0.01-0.03c-0.01-0.02-0.03-0.03-0.04-0.04
		c-0.02-0.03-0.04-0.05-0.07-0.07c-0.02-0.02-0.05-0.04-0.07-0.05c-0.03-0.02-0.05-0.03-0.08-0.04c-0.03-0.01-0.06-0.02-0.1-0.02
		c-0.02,0-0.03-0.01-0.05-0.01H3.88c-0.02,0-0.03,0.01-0.05,0.01c-0.03,0-0.07,0.01-0.1,0.02c-0.03,0.01-0.06,0.02-0.08,0.04
		c-0.03,0.01-0.05,0.03-0.07,0.05c-0.03,0.02-0.05,0.05-0.07,0.07c-0.01,0.01-0.03,0.02-0.04,0.04c-0.01,0.01-0.01,0.02-0.01,0.03
		c-0.02,0.03-0.02,0.06-0.03,0.09c-0.01,0.03-0.02,0.06-0.02,0.09c0,0.01-0.01,0.02-0.01,0.03v7.08c0,0.01,0.01,0.02,0.01,0.03
		c0,0.03,0.01,0.06,0.02,0.09c0.01,0.03,0.02,0.06,0.03,0.09c0.01,0.01,0.01,0.02,0.01,0.03c0.02,0.03,0.04,0.05,0.06,0.08
		c0.05,0.06,0.1,0.09,0.15,0.11C3.69,29.96,3.7,29.96,3.71,29.97z M5.6,29.03l4.08-2.49l4.08,2.49H5.6z M15,28.66l-4.39-2.68
		L15,23.3V28.66z M13.77,22.92l-4.08,2.49L5.6,22.92H13.77z M4.36,23.3l4.39,2.68l-4.39,2.68V23.3z"/>
</g>
</svg>
