<?xml version="1.0" encoding="utf-8"?>
<!-- Generator: Adobe Illustrator 27.7.0, SVG Export Plug-In . SVG Version: 6.00 Build 0)  -->
<svg version="1.1" id="Layer_1" xmlns="http://www.w3.org/2000/svg" xmlns:xlink="http://www.w3.org/1999/xlink" x="0px" y="0px"
	 viewBox="0 0 32 32" style="enable-background:new 0 0 32 32;" xml:space="preserve">
<style type="text/css">
	.st0{fill:#6366F1;}
	.st1{fill:none;stroke:#6366F1;stroke-linecap:round;stroke-linejoin:round;stroke-miterlimit:10;}
</style>
<g>
	<polyline class="st1" points="12.7,9.77 12.7,5.09 7.35,2 2,5.09 2,11.26 7.35,14.35 11.36,12.04 	"/>
	<polyline class="st1" points="12.7,5.22 7.35,8.31 2,5.22 	"/>
	<line class="st1" x1="7.35" y1="8.31" x2="7.35" y2="14.35"/>
	<polyline class="st1" points="20.64,12.04 24.65,14.35 30,11.26 30,5.09 24.65,2 19.3,5.09 19.3,9.77 	"/>
	<polyline class="st1" points="30,5.22 24.65,8.31 19.3,5.22 	"/>
	<line class="st1" x1="24.65" y1="8.31" x2="24.65" y2="14.35"/>
	<polyline class="st1" points="12.7,24.96 12.7,20.3 7.35,17.21 2,20.3 2,26.47 7.35,29.56 11.38,27.24 	"/>
	<polyline class="st1" points="12.7,20.43 7.35,23.52 2,20.43 	"/>
	<line class="st1" x1="7.35" y1="23.52" x2="7.35" y2="29.56"/>
	<polyline class="st1" points="10.06,9.77 16,13.19 21.94,9.77 	"/>
	<polyline class="st1" points="10.06,24.89 16,28.32 21.94,24.89 	"/>
	<line class="st1" x1="16" y1="22.81" x2="16" y2="30"/>
	<line class="st1" x1="16" y1="2" x2="16" y2="21.06"/>
	<polyline class="st1" points="20.62,27.23 24.65,29.56 30,26.47 30,20.3 24.65,17.21 19.3,20.3 19.3,24.96 	"/>
	<polyline class="st1" points="30,20.43 24.65,23.52 19.3,20.43 	"/>
	<line class="st1" x1="24.65" y1="23.52" x2="24.65" y2="29.56"/>
</g>
</svg>
