<?xml version="1.0" encoding="utf-8"?>
<!-- Generator: Adobe Illustrator 27.7.0, SVG Export Plug-In . SVG Version: 6.00 Build 0)  -->
<svg version="1.1" id="Layer_1" xmlns="http://www.w3.org/2000/svg" xmlns:xlink="http://www.w3.org/1999/xlink" x="0px" y="0px"
	 viewBox="0 0 32 32" style="enable-background:new 0 0 32 32;" xml:space="preserve">
<style type="text/css">
	.st0{fill:#6366F1;}
	.st1{fill:none;stroke:#6366F1;stroke-linecap:round;stroke-linejoin:round;stroke-miterlimit:10;}
</style>
<g>
	<line class="st1" x1="24.13" y1="24.13" x2="21.75" y2="21.74"/>
	<path class="st1" d="M29.3,29.3L29.3,29.3c0.93-0.93,0.93-2.44,0-3.38l-3.49-3.49l-3.38,3.38l3.49,3.49
		C26.86,30.23,28.37,30.23,29.3,29.3z"/>
	<path class="st1" d="M24.67,10.29c0.31,1.04,0.47,2.14,0.47,3.28c0,6.39-5.18,11.57-11.57,11.57S2,19.96,2,13.57S7.18,2,13.57,2
		c3.91,0,7.36,1.94,9.45,4.9"/>
	<line class="st1" x1="2" y1="30" x2="21.1" y2="30"/>
	<line class="st1" x1="4.37" y1="30" x2="4.37" y2="23.65"/>
	<line class="st1" x1="8.11" y1="30" x2="8.11" y2="26.04"/>
	<line class="st1" x1="11.85" y1="30" x2="11.85" y2="27.34"/>
	<line class="st1" x1="15.59" y1="30" x2="15.59" y2="27.98"/>
	<line class="st1" x1="19.32" y1="30" x2="19.32" y2="26.39"/>
	<polygon class="st1" points="24.43,4.31 29.17,3.31 28.18,8.05 	"/>
	<path class="st1" d="M5.79,15.47c-0.15-0.61-0.23-1.25-0.23-1.9c0-4.42,3.59-8.01,8.01-8.01c2.92,0,5.48,1.57,6.88,3.91"/>
	<path class="st1" d="M21.57,13.38c0,0.06,0,0.12,0,0.19c0,4.42-3.59,8.01-8.01,8.01c-2.43,0-4.6-1.08-6.07-2.78
		c-0.4-0.46-0.74-0.96-1.02-1.5l2.44-2.44l1.76,1.76l4.97-4.97l2.57,2.57l3-3l4.99-4.99"/>
</g>
</svg>
