<?xml version="1.0" encoding="utf-8"?>
<!-- Generator: Adobe Illustrator 27.7.0, SVG Export Plug-In . SVG Version: 6.00 Build 0)  -->
<svg version="1.1" id="Layer_1" xmlns="http://www.w3.org/2000/svg" xmlns:xlink="http://www.w3.org/1999/xlink" x="0px" y="0px"
	 viewBox="0 0 32 32" style="enable-background:new 0 0 32 32;" xml:space="preserve">
<style type="text/css">
	.st0{fill:#6366F1;}
	.st1{fill:none;stroke:#6366F1;stroke-linecap:round;stroke-linejoin:round;stroke-miterlimit:10;}
</style>
<g>
	<path class="st0" d="M28.97,18.96L28,18.41c0.16-0.81,0.24-1.61,0.24-2.41c0-0.8-0.08-1.61-0.24-2.41l0.96-0.56
		c0.3-0.17,0.51-0.45,0.6-0.78s0.04-0.68-0.13-0.98l-2.63-4.56c-0.17-0.3-0.45-0.51-0.78-0.6c-0.33-0.09-0.68-0.04-0.98,0.13
		l-0.96,0.56c-1.22-1.07-2.65-1.9-4.17-2.41V3.29c0-0.71-0.58-1.29-1.29-1.29h-5.26c-0.71,0-1.29,0.58-1.29,1.29v1.11
		c-1.52,0.51-2.94,1.34-4.16,2.42L6.95,6.25C6.65,6.08,6.3,6.03,5.97,6.12c-0.33,0.09-0.61,0.3-0.78,0.6l-2.63,4.56
		c-0.17,0.3-0.22,0.64-0.13,0.98c0.09,0.33,0.3,0.61,0.6,0.78L4,13.59C3.84,14.4,3.75,15.21,3.75,16c0,0.8,0.08,1.61,0.24,2.41
		l-0.96,0.56c-0.61,0.36-0.83,1.14-0.47,1.76l2.63,4.56c0.36,0.61,1.14,0.83,1.76,0.47l0.96-0.56c1.22,1.07,2.65,1.9,4.17,2.41v1.11
		c0,0.71,0.58,1.29,1.29,1.29h5.26c0.71,0,1.29-0.58,1.29-1.29v-1.11c1.52-0.51,2.94-1.34,4.16-2.42l0.97,0.56
		c0.61,0.36,1.4,0.14,1.76-0.47l2.63-4.56C29.79,20.11,29.58,19.32,28.97,18.96z M28.73,20.31l-2.63,4.56
		c-0.13,0.22-0.41,0.3-0.64,0.17l-1.23-0.71c-0.16-0.09-0.35-0.07-0.48,0.05c-1.25,1.16-2.76,2.04-4.36,2.53
		c-0.17,0.05-0.29,0.21-0.29,0.39v1.41c0,0.26-0.21,0.47-0.47,0.47h-5.26c-0.26,0-0.47-0.21-0.47-0.47v-1.41
		c0-0.18-0.12-0.34-0.29-0.39c-1.61-0.5-3.12-1.37-4.37-2.53c-0.08-0.07-0.18-0.11-0.28-0.11c-0.07,0-0.14,0.02-0.21,0.06
		l-1.22,0.71c-0.22,0.13-0.51,0.05-0.64-0.17l-2.63-4.56c-0.13-0.22-0.05-0.51,0.17-0.64l1.22-0.7c0.16-0.09,0.24-0.27,0.2-0.45
		C4.67,17.69,4.58,16.84,4.58,16c0-0.83,0.1-1.68,0.29-2.52c0.04-0.18-0.04-0.36-0.2-0.45l-1.22-0.71
		c-0.11-0.06-0.18-0.16-0.22-0.28c-0.03-0.12-0.02-0.25,0.05-0.35L5.9,7.13c0.06-0.11,0.16-0.18,0.28-0.22
		C6.31,6.88,6.43,6.9,6.54,6.96l1.23,0.71c0.16,0.09,0.35,0.07,0.48-0.05c1.25-1.16,2.76-2.04,4.36-2.53
		c0.17-0.05,0.29-0.21,0.29-0.39V3.29c0-0.26,0.21-0.47,0.47-0.47h5.26c0.26,0,0.47,0.21,0.47,0.47v1.41c0,0.18,0.12,0.34,0.29,0.39
		c1.61,0.5,3.12,1.37,4.37,2.53c0.13,0.12,0.33,0.14,0.48,0.05l1.22-0.71c0.11-0.06,0.23-0.08,0.35-0.05
		c0.12,0.03,0.22,0.11,0.28,0.22l2.63,4.56c0.06,0.11,0.08,0.23,0.05,0.35c-0.03,0.12-0.11,0.22-0.22,0.28l-1.22,0.7
		c-0.16,0.09-0.24,0.27-0.2,0.45c0.19,0.83,0.28,1.68,0.28,2.52c0,0.83-0.1,1.68-0.29,2.52c-0.04,0.18,0.04,0.36,0.2,0.45l1.22,0.71
		C28.78,19.8,28.86,20.09,28.73,20.31z"/>
	<path class="st0" d="M16,7.7c-4.58,0-8.3,3.72-8.3,8.3s3.72,8.3,8.3,8.3s8.3-3.72,8.3-8.3S20.58,7.7,16,7.7z M16,23.48
		c-4.12,0-7.48-3.36-7.48-7.48S11.88,8.52,16,8.52s7.48,3.36,7.48,7.48S20.12,23.48,16,23.48z"/>
	<path class="st0" d="M17.53,13.84H16c-0.23,0-0.41,0.18-0.41,0.41v3.51c0,0.23,0.18,0.41,0.41,0.41c0.23,0,0.41-0.18,0.41-0.41
		v-0.9h1.12c0.83,0,1.51-0.68,1.51-1.51C19.04,14.51,18.37,13.84,17.53,13.84z M17.53,16.03h-1.12v-1.37h1.12
		c0.38,0,0.68,0.31,0.68,0.68S17.91,16.03,17.53,16.03z"/>
	<path class="st0" d="M13.75,14.1c-0.06-0.16-0.21-0.27-0.38-0.27h-0.44c-0.17,0-0.32,0.11-0.38,0.27l-1.32,3.51
		c-0.08,0.21,0.03,0.45,0.24,0.53c0.21,0.08,0.45-0.03,0.53-0.24l0.23-0.61h1.84l0.23,0.61c0.06,0.16,0.22,0.27,0.38,0.27
		c0.05,0,0.1-0.01,0.14-0.03c0.21-0.08,0.32-0.32,0.24-0.53L13.75,14.1z M12.54,16.47l0.61-1.63l0.61,1.63H12.54z"/>
	<path class="st0" d="M19.95,13.84c-0.23,0-0.41,0.18-0.41,0.41v3.51c0,0.23,0.18,0.41,0.41,0.41c0.23,0,0.41-0.18,0.41-0.41v-3.51
		C20.36,14.02,20.17,13.84,19.95,13.84z"/>
	<path class="st0" d="M18.94,6.78c0.29,0.09,0.57,0.2,0.84,0.31c0.05,0.02,0.11,0.03,0.16,0.03c0.16,0,0.31-0.09,0.38-0.25
		c0.09-0.21-0.01-0.45-0.22-0.54C19.81,6.21,19.5,6.1,19.19,6c-0.22-0.07-0.45,0.05-0.52,0.27C18.6,6.48,18.72,6.71,18.94,6.78z"/>
	<path class="st0" d="M7.5,20.62c-0.11-0.2-0.36-0.27-0.56-0.16c-0.2,0.11-0.27,0.36-0.16,0.56c0.17,0.31,0.36,0.62,0.56,0.91
		c0.08,0.12,0.21,0.18,0.34,0.18c0.08,0,0.16-0.02,0.23-0.07c0.19-0.13,0.23-0.38,0.11-0.57C7.84,21.2,7.66,20.91,7.5,20.62z"/>
	<path class="st0" d="M15.16,25.64c-2.2-0.19-4.29-1.14-5.89-2.69c-0.16-0.16-0.42-0.15-0.58,0.01c-0.16,0.16-0.15,0.42,0.01,0.58
		c1.73,1.67,4,2.71,6.39,2.92c0.01,0,0.02,0,0.04,0c0.21,0,0.39-0.16,0.41-0.38C15.55,25.85,15.38,25.65,15.16,25.64z"/>
	<path class="st0" d="M21.91,7.33c-0.19-0.13-0.44-0.08-0.57,0.11c-0.13,0.19-0.08,0.44,0.11,0.57c1.91,1.3,3.29,3.25,3.89,5.47
		c0.05,0.18,0.22,0.3,0.4,0.3c0.04,0,0.07,0,0.11-0.01c0.22-0.06,0.35-0.28,0.29-0.5C25.48,10.85,23.98,8.75,21.91,7.33z"/>
</g>
</svg>
