<?xml version="1.0" encoding="utf-8"?>
<!-- Generator: Adobe Illustrator 27.5.0, SVG Export Plug-In . SVG Version: 6.00 Build 0)  -->
<svg version="1.1" id="Layer_1" xmlns="http://www.w3.org/2000/svg" xmlns:xlink="http://www.w3.org/1999/xlink" x="0px" y="0px"
	 viewBox="0 0 100 100" style="enable-background:new 0 0 100 100;" xml:space="preserve">
<style type="text/css">
	.st0{fill:#5B68F8;}
	.st1{fill:#FFFFFF;}
</style>
<g>
	<path class="st0" d="M50,100L50,100C22.39,100,0,77.61,0,50v0C0,22.39,22.39,0,50,0h0c27.61,0,50,22.39,50,50v0
		C100,77.61,77.61,100,50,100z"/>
	<g>
		<g>
			<g>
				<g>
					<g>
						<g>
							<g>
								<g>
									<g>
										<path class="st1" d="M43.99,50.13c-4.39-0.39-8.72-1.05-13-2.11c-1.98-0.5-6.99-0.98-8.09-3.1
											c-0.62-1.19-0.59-8.13,0-9.33c1.24-2.48,10.87-1.01,13.31-1.01c8.15,0,16.29,0,24.44,0c3.45,0,6.89,0,10.34,0
											c1.15,0,4.19-0.58,5.21,0c1.68,0.94,1.27,7.59,0.88,9.45c-0.51,2.43-3,2.57-5.3,3.24c-5.17,1.49-10.43,2.39-15.78,2.87
											c-0.84,0.07-0.85,1.4,0,1.32c4.5-0.4,8.96-1.06,13.35-2.16c2.05-0.52,6.92-1.01,8.48-2.86c1.61-1.9,0.66-7.16,0.57-9.43
											c-0.09-2.21-0.14-3.39-2.5-3.74c-2.68-0.4-5.74,0-8.45,0c-10.42,0-20.83,0-31.25,0c-3.62,0-7.25-0.02-10.87,0
											c-1.89,0.01-3.02-0.12-3.75,1.94c-0.6,1.7-0.01,4.61-0.01,6.41c0,1.21-0.43,3.45,0.34,4.59c0.87,1.3,3.68,1.68,5.01,2.07
											c5.57,1.67,11.27,2.67,17.06,3.18C44.84,51.52,44.84,50.2,43.99,50.13L43.99,50.13z"/>
									</g>
								</g>
								<g>
									<g>
										<path class="st1" d="M74.47,49.46c0,6.54,0,13.07,0,19.61c0,2.21-0.07,2.55-2.09,2.81c-2.68,0.35-5.65,0-8.35,0
											c-8.35,0-16.71,0-25.06,0c-2.51,0-12.36,1.49-13.44-1.1c-0.46-1.11,0-3.55,0-4.71c0-2.22,0-4.44,0-6.66c0-3.3,0-6.6,0-9.9
											c0-0.85-1.32-0.85-1.32,0c0,3.13,0,6.27,0,9.4c0,3.78-0.61,8.12,0,11.86c0.65,3.97,7.16,2.42,10.16,2.42
											c9.32,0,18.65,0,27.97,0c2.75,0,12.17,1.77,13.42-1.74c1-2.81,0.02-7.64,0.02-10.59c0-3.8,0-7.6,0-11.41
											C75.79,48.61,74.47,48.61,74.47,49.46L74.47,49.46z"/>
									</g>
								</g>
								<g>
									<g>
										<path class="st1" d="M55.11,54.52c-3.08,0-6.21,0.18-9.28,0c-1.55-0.09-1.18-0.89-1.18-2.36c0-0.86-0.49-3.88,0.13-4.52
											c0.55-0.56,3.04-0.14,3.79-0.14c1.85,0,3.74-0.11,5.59,0c1.55,0.09,1.18,0.89,1.18,2.36c0,0.73,0.48,4.44-0.41,4.68
											c-0.82,0.22-0.47,1.5,0.35,1.27c1.47-0.4,1.38-1.56,1.38-2.83c0-1.67,0.22-3.49,0-5.14c-0.37-2.71-5.26-1.66-7.14-1.66
											c-2.17,0-6.01-0.96-6.19,2.05c-0.1,1.78-0.08,3.65,0,5.43c0.05,1.18,0.29,1.95,1.58,2.17c1.59,0.28,3.47,0,5.08,0
											c1.7,0,3.41,0,5.11,0C55.96,55.84,55.96,54.52,55.11,54.52z"/>
									</g>
								</g>
								<g>
									<g>
										<path class="st1" d="M55.12,58.79c-3.41,0-6.83,0-10.24,0c-0.85,0-0.85,1.32,0,1.32c3.41,0,6.83,0,10.24,0
											C55.97,60.11,55.97,58.79,55.12,58.79L55.12,58.79z"/>
									</g>
								</g>
								<g>
									<g>
										<path class="st1" d="M41.6,33.91c0-1.65-0.72-5.09,1-5.79c1.79-0.72,5.5,0,7.4,0c1.97,0,5.4-0.67,7.26,0
											c1.9,0.68,1.14,4,1.14,5.79c0,0.85,1.32,0.85,1.32,0c0-1.79,0.84-5.81-1.13-6.89c-0.74-0.4-1.84-0.22-2.63-0.22
											c-1.99,0-3.97,0-5.96,0c-2.36,0-6.01-0.74-8.26,0.12c-2.37,0.9-1.46,5.02-1.46,6.99C40.28,34.76,41.6,34.76,41.6,33.91
											L41.6,33.91z"/>
									</g>
								</g>
							</g>
						</g>
					</g>
				</g>
			</g>
		</g>
	</g>
</g>
</svg>
