<?xml version="1.0" encoding="utf-8"?>
<!-- Generator: Adobe Illustrator 27.5.0, SVG Export Plug-In . SVG Version: 6.00 Build 0)  -->
<svg version="1.1" id="Layer_1" xmlns="http://www.w3.org/2000/svg" xmlns:xlink="http://www.w3.org/1999/xlink" x="0px" y="0px"
	 viewBox="0 0 100 100" style="enable-background:new 0 0 100 100;" xml:space="preserve">
<style type="text/css">
	.st0{fill:#5B68F8;}
	.st1{fill:#FFFFFF;}
</style>
<g>
	<path class="st0" d="M50,100L50,100C22.39,100,0,77.61,0,50v0C0,22.39,22.39,0,50,0h0c27.61,0,50,22.39,50,50v0
		C100,77.61,77.61,100,50,100z"/>
	<g>
		<g>
			<g>
				<g>
					<g>
						<g>
							<g>
								<g>
									<g>
										<path class="st1" d="M33.34,37.68c-0.29,5.44-8.5,5.49-8.5,0C24.83,32.18,33.04,32.23,33.34,37.68
											c0.04,0.79,1.28,0.8,1.24,0c-0.16-2.98-2.38-5.49-5.49-5.49c-2.98,0-5.5,2.5-5.49,5.49c0.01,2.89,2.33,5.34,5.23,5.48
											c3.21,0.15,5.59-2.39,5.76-5.48C34.62,36.88,33.38,36.88,33.34,37.68z"/>
									</g>
								</g>
							</g>
							<g>
								<g>
									<path class="st1" d="M29.71,76.34c0-4.56,0-9.11,0-13.67c0-0.8-1.24-0.8-1.24,0c0,4.56,0,9.11,0,13.67
										C28.47,77.14,29.71,77.14,29.71,76.34L29.71,76.34z"/>
								</g>
							</g>
						</g>
					</g>
					<g>
						<g>
							<path class="st1" d="M22.44,51.2c0.21,4.18,0.43,8.36,0.64,12.54c0.14,2.66,0.27,5.32,0.41,7.98
								c0.05,1.02-0.21,2.79,0.21,3.75c1.02,2.37,7.06,2.21,9.09,1.49c2.57-0.91,1.84-4.27,1.95-6.58
								c0.28-5.68,0.55-11.37,0.83-17.05c0.04-0.81-0.07-1.89,0.13-2.69c0.25-1.01,0-0.24-0.27-0.13c0.88-0.37,2.84,0.05,3.85-0.1
								c1.34-0.2,2.8-0.69,3.96-1.44c2.95-1.92,3.58-4.51-0.07-4.94c-4.53-0.53-9.5-0.62-14.07-0.51c-4.12,0.1-10.16,0.3-10.88,5.19
								c-0.67,4.59-1.1,12.17,4.69,13.1c0.78,0.13,1.12-1.07,0.33-1.2c-4.54-0.73-3.78-4.97-3.78-7.84c0-3-0.72-5.42,2.99-7.05
								c2.35-1.03,5.69-0.94,8.19-0.91c3.72,0.06,7.45,0.27,11.17,0.41c2.27,0.08,3.59,0.41,0.8,2.68
								c-2.03,1.65-5.05,1.37-7.49,1.37c-0.35,0-0.6,0.28-0.62,0.62c-0.24,4.88-0.48,9.77-0.71,14.65c-0.14,2.87-0.28,5.73-0.42,8.6
								c-0.13,2.65-0.65,2.58-3.36,2.58c-2.27,0-4.4,0.72-5.14-1.41c-0.74-2.12-0.28-5.45-0.39-7.68
								c-0.26-5.14-0.53-10.29-0.79-15.43C23.64,50.4,22.4,50.4,22.44,51.2L22.44,51.2z"/>
						</g>
					</g>
					<g>
						<g>
							<path class="st1" d="M41.86,55.84c2.76-2.48,5.51-4.97,8.27-7.45c0.56-0.51,1.35-1.54,2.05-1.85
								c0.88-0.38,0.07-0.25-0.2-0.36c1.25,0.51,2.68,2.87,3.62,3.88c0.23,0.24,0.65,0.23,0.88,0c3.7-3.79,7.41-7.58,11.11-11.37
								c0.56-0.57-0.32-1.45-0.88-0.88c-2.74,2.81-5.49,5.62-8.23,8.42c-0.69,0.7-1.36,1.42-2.06,2.11c-0.86,0.84-0.8,0.43-0.08,0.7
								c-1.22-0.46-2.71-2.89-3.62-3.88c-0.24-0.25-0.63-0.22-0.88,0c-3.62,3.26-7.24,6.53-10.87,9.79
								C40.39,55.5,41.26,56.38,41.86,55.84L41.86,55.84z"/>
						</g>
					</g>
					<g>
						<g>
							<path class="st1" d="M68.38,42.9c-0.05-1.71-0.11-3.43-0.16-5.14c-0.01-0.33-0.28-0.63-0.62-0.62
								c-1.71,0.05-3.43,0.11-5.14,0.16c-0.8,0.03-0.8,1.27,0,1.24c1.71-0.05,3.43-0.11,5.14-0.16c-0.21-0.21-0.41-0.41-0.62-0.62
								c0.05,1.71,0.11,3.43,0.16,5.14C67.17,43.7,68.41,43.7,68.38,42.9L68.38,42.9z"/>
						</g>
					</g>
					<g>
						<g>
							<path class="st1" d="M75.21,60.86c-11.51,0-23.02,0-34.54,0c-0.8,0-0.8,1.24,0,1.24c11.51,0,23.02,0,34.54,0
								C76.01,62.1,76.01,60.86,75.21,60.86L75.21,60.86z"/>
						</g>
					</g>
					<g>
						<g>
							<path class="st1" d="M72.91,25.76c0,11.9,0,23.81,0,35.71c0,0.8,1.24,0.8,1.24,0c0-11.9,0-23.81,0-35.71
								C74.15,24.97,72.91,24.97,72.91,25.76L72.91,25.76z"/>
						</g>
					</g>
					<g>
						<g>
							<path class="st1" d="M27.4,26.38c15.94,0,31.87,0,47.81,0c0.8,0,0.8-1.24,0-1.24c-15.94,0-31.87,0-47.81,0
								C26.6,25.14,26.6,26.38,27.4,26.38L27.4,26.38z"/>
						</g>
					</g>
					<g>
						<g>
							<path class="st1" d="M29.71,29.17c0-1.13,0-2.27,0-3.4c0-0.8-1.24-0.8-1.24,0c0,1.13,0,2.27,0,3.4
								C28.47,29.96,29.71,29.97,29.71,29.17L29.71,29.17z"/>
						</g>
					</g>
					<g>
						<g>
							<path class="st1" d="M50.69,23.43c0,0.78,0,1.56,0,2.34c0,0.8,1.24,0.8,1.24,0c0-0.78,0-1.56,0-2.34
								C51.93,22.63,50.69,22.63,50.69,23.43L50.69,23.43z"/>
						</g>
					</g>
					<g>
						<g>
							<path class="st1" d="M58.18,63c0,0.78,0,1.55,0,2.33c0.21-0.21,0.41-0.41,0.62-0.62c-4.99,0-9.99,0-14.98,0
								c0.21,0.21,0.41,0.41,0.62,0.62c0-0.78,0-1.55,0-2.33c0-0.8-1.24-0.8-1.24,0c0,0.78,0,1.55,0,2.33
								c0,0.34,0.28,0.62,0.62,0.62c4.99,0,9.99,0,14.98,0c0.34,0,0.62-0.28,0.62-0.62c0-0.78,0-1.55,0-2.33
								C59.42,62.21,58.18,62.21,58.18,63L58.18,63z"/>
						</g>
					</g>
					<g>
						<g>
							<path class="st1" d="M46.62,65.17c-0.8,3.67-1.61,7.34-2.41,11.01c-0.17,0.78,1.02,1.11,1.2,0.33
								c0.8-3.67,1.61-7.34,2.41-11.01C47.99,64.72,46.8,64.39,46.62,65.17L46.62,65.17z"/>
						</g>
					</g>
					<g>
						<g>
							<path class="st1" d="M54.8,65.5c0.8,3.67,1.61,7.34,2.41,11.01c0.17,0.78,1.37,0.45,1.2-0.33c-0.8-3.67-1.61-7.34-2.41-11.01
								C55.82,64.39,54.63,64.72,54.8,65.5L54.8,65.5z"/>
						</g>
					</g>
					<g>
						<g>
							<path class="st1" d="M45.8,72.44c3.69,0,7.37,0,11.06,0c0.8,0,0.8-1.24,0-1.24c-3.69,0-7.37,0-11.06,0
								C45,71.2,45,72.44,45.8,72.44L45.8,72.44z"/>
						</g>
					</g>
				</g>
			</g>
		</g>
	</g>
</g>
</svg>
