<?xml version="1.0" encoding="utf-8"?>
<!-- Generator: Adobe Illustrator 27.5.0, SVG Export Plug-In . SVG Version: 6.00 Build 0)  -->
<svg version="1.1" id="Layer_1" xmlns="http://www.w3.org/2000/svg" xmlns:xlink="http://www.w3.org/1999/xlink" x="0px" y="0px"
	 viewBox="0 0 100 100" style="enable-background:new 0 0 100 100;" xml:space="preserve">
<style type="text/css">
	.st0{fill:#5B68F8;}
	.st1{fill:#FFFFFF;}
</style>
<g>
	<path class="st0" d="M50,100L50,100C22.39,100,0,77.61,0,50v0C0,22.39,22.39,0,50,0h0c27.61,0,50,22.39,50,50v0
		C100,77.61,77.61,100,50,100z"/>
	<g>
		<g>
			<g>
				<g>
					<g>
						<g>
							<g>
								<path class="st1" d="M53.54,24.39c1.34,1.34,2.59,2.77,4.49,3.29c3.72,1.03,7.5-1.97,8.98,5.22
									c0.4,1.94-0.22,3.63,0.85,5.51c1.91,3.34,6.69,3.9,2.66,10.04c-1.1,1.67-2.7,2.38-3.29,4.49c-1.03,3.72,1.98,7.49-5.22,8.98
									c-1.91,0.39-3.57-0.21-5.43,0.82c-3.39,1.87-4.01,6.71-10.12,2.69c-1.19-0.78-1.82-2.03-3.13-2.73
									c-3.87-2.07-8.81,1.62-10.35-5.79c-0.39-1.91,0.19-3.49-0.78-5.35c-1.82-3.47-6.77-4-2.73-10.2
									c0.78-1.2,2.02-1.81,2.73-3.13c2.08-3.89-1.64-8.78,5.79-10.35c1.85-0.39,3.52,0.19,5.35-0.78
									C46.54,25.4,48.02,20.01,53.54,24.39c0.68,0.54,1.66-0.42,0.97-0.97c-5.18-4.11-7.71,0.16-12.3,2.25
									c-3.99,1.81-9.14,0.23-10.44,5.93c-0.25,1.09,0.03,2.19-0.15,3.27c-0.45,2.68-1.61,3.52-2.85,5.29
									c-1.23,1.74-2.31,3.09-2.09,5.39c0.21,2.13,1.49,3.11,2.65,4.71c2.44,3.34,1.5,5.41,2.68,8.77c0.65,1.85,2.05,3.25,3.9,3.9
									c3.3,1.16,5.49,0.28,8.77,2.68c3.97,2.9,5.88,3.3,10.09,0.57c1.8-1.17,2.55-2.39,5.29-2.85c1.07-0.18,2.18,0.09,3.27-0.15
									c1.92-0.43,3.57-1.66,4.43-3.46c1.09-2.27,0.45-4.67,1.5-6.99c1.13-2.48,3.69-4.13,4.06-6.98c0.31-2.44-0.82-3.7-2.06-5.57
									c-1.23-1.85-2.42-3.36-2.85-5.69c-0.19-1.02,0.1-2-0.17-3.05c-0.62-2.36-2.42-4.16-4.8-4.72c-3.44-0.82-5.96-0.33-8.9-3.27
									C53.88,22.79,52.91,23.76,53.54,24.39z"/>
							</g>
						</g>
						<g>
							<g>
								<path class="st1" d="M50.69,35.74c0.89,1.8,1.47,4.24,3.47,4.99c1.04,0.39,3.24-0.1,4.07,0.59c1.66,1.39-1.3,3.05-2.07,3.95
									c-1.73,2.03-0.25,3.08-0.44,5.47c-0.29,3.73-3.54-0.44-5.72-0.44c-0.89,0-1.87,0.71-2.61,1.1c-0.4,0.21-1.47,1.03-1.93,1.01
									c-1.79-0.08-1.07-0.72-1.18-1.68c-0.27-2.37,1.3-3.43-0.44-5.47c-0.76-0.9-3.79-2.51-2.07-3.95
									c0.8-0.67,2.97-0.22,3.99-0.58c0.91-0.32,1.12-0.49,1.7-1.25c0.46-0.6,1.8-5.28,3.33-3.61c0.6,0.65,1.57-0.32,0.97-0.97
									c-1.85-2.02-3.35-0.42-4.29,1.45c-0.65,1.29-0.96,2.48-2.28,3.09c-1.16,0.54-2.76,0.09-3.94,0.57
									c-2.05,0.83-2,2.46-0.7,3.96c0.91,1.05,2.64,1.93,2.92,3.38c0.24,1.23-0.7,2.79-0.69,4.05c0,2,1.26,2.96,3.2,2.28
									c1.15-0.41,2.37-1.71,3.57-1.88c1.54-0.22,2.93,1.25,4.29,1.78c1.91,0.75,3.35,0.01,3.39-2.12c0.02-1.23-0.71-2.5-0.64-3.73
									c0.09-1.57,1.41-2.27,2.44-3.37c1.57-1.69,2.07-3.62-0.63-4.41c-1.35-0.39-3.16-0.03-4.31-0.87
									c-1.06-0.78-1.64-2.88-2.22-4.05C51.48,34.25,50.3,34.95,50.69,35.74z"/>
							</g>
						</g>
						<g>
							<g>
								<path class="st1" d="M43,68.17c-1.65,3.76-3.3,7.52-4.95,11.28c0.39,0,0.79,0,1.18,0c-1.65-2.67-3.3-5.34-4.95-8.02
									c-0.17-0.28-0.47-0.37-0.77-0.32c-3.08,0.59-6.17,1.19-9.25,1.78c0.26,0.34,0.52,0.67,0.77,1.01
									c1.87-4.27,3.75-8.54,5.62-12.81c0.35-0.8-0.83-1.5-1.18-0.69c-1.87,4.27-3.75,8.54-5.62,12.81
									c-0.24,0.56,0.15,1.13,0.77,1.01c1.42-0.27,2.84-0.55,4.26-0.82c1.13-0.22,2.27-0.44,3.4-0.66c0.4-0.08,1.83-0.16,1.18-0.42
									c-0.69-0.28,0.28,0.86,0.48,1.18c0.54,0.88,1.08,1.76,1.63,2.63c0.82,1.34,1.65,2.67,2.47,4.01c0.24,0.4,0.97,0.5,1.18,0
									c1.65-3.76,3.3-7.52,4.95-11.28C44.53,68.06,43.35,67.36,43,68.17L43,68.17z"/>
							</g>
						</g>
						<g>
							<g>
								<path class="st1" d="M69.34,61.1c1.87,4.27,3.75,8.54,5.62,12.81c0.26-0.34,0.52-0.67,0.77-1.01
									c-3.08-0.59-6.17-1.19-9.25-1.78c-0.31-0.06-0.61,0.04-0.77,0.32c-1.65,2.67-3.3,5.34-4.95,8.02c0.39,0,0.79,0,1.18,0
									c-1.65-3.76-3.3-7.52-4.95-11.28c-0.35-0.81-1.54-0.11-1.18,0.69c1.65,3.76,3.3,7.52,4.95,11.28c0.22,0.5,0.94,0.4,1.18,0
									c0.76-1.23,1.52-2.46,2.28-3.69c0.61-0.98,1.21-1.97,1.82-2.95c0.19-0.31,1.13-1.51,0.48-1.18
									c-0.63,0.32,0.75,0.34,1.18,0.42c1.01,0.2,2.03,0.39,3.04,0.59c1.54,0.3,3.08,0.59,4.62,0.89c0.62,0.12,1.02-0.45,0.77-1.01
									c-1.87-4.27-3.75-8.54-5.62-12.81C70.17,59.6,68.99,60.3,69.34,61.1L69.34,61.1z"/>
							</g>
						</g>
						<g>
							<g>
								<path class="st1" d="M64.23,44.91C63.88,52.65,58.01,59.14,50,59.14c-7.74,0-14.23-6.49-14.23-14.23
									c0-7.76,6.48-14.23,14.23-14.23C58.02,30.68,63.88,37.15,64.23,44.91c0.04,0.88,1.41,0.88,1.37,0
									c-0.38-8.48-6.83-15.6-15.6-15.6c-8.49,0-15.6,7.11-15.6,15.6c0,8.52,7.11,15.57,15.6,15.6c8.77,0.04,15.22-7.15,15.6-15.6
									C65.64,44.03,64.27,44.03,64.23,44.91z"/>
							</g>
						</g>
					</g>
				</g>
			</g>
		</g>
	</g>
</g>
</svg>
