<?xml version="1.0" encoding="utf-8"?>
<!-- Generator: Adobe Illustrator 27.5.0, SVG Export Plug-In . SVG Version: 6.00 Build 0)  -->
<svg version="1.1" id="Layer_1" xmlns="http://www.w3.org/2000/svg" xmlns:xlink="http://www.w3.org/1999/xlink" x="0px" y="0px"
	 viewBox="0 0 100 100" style="enable-background:new 0 0 100 100;" xml:space="preserve">
<style type="text/css">
	.st0{fill:#5B68F8;}
	.st1{fill:#FFFFFF;}
</style>
<g>
	<path class="st0" d="M50,100L50,100C22.39,100,0,77.61,0,50v0C0,22.39,22.39,0,50,0h0c27.61,0,50,22.39,50,50v0
		C100,77.61,77.61,100,50,100z"/>
	<g>
		<g>
			<g>
				<g>
					<g>
						<g>
							<g>
								<path class="st1" d="M50.4,17.81c0.85,1.72,1.78,5.24,3.27,6.44c1.53,1.22,6.49,0.04,7.35,1.38
									c-0.06-0.1-4.59,3.48-5.06,4.65c-0.9,2.24,1.48,5.04,0.91,7.25c-0.13,0.51,0.73,0.11-0.2-0.22
									c-0.68-0.24-1.34-0.71-1.98-1.04c-0.99-0.52-2.41-1.69-3.54-1.85c-2.12-0.3-4.45,1.9-6.3,2.76
									c-0.93,0.43-0.49,0.51-0.48,0.54c-0.14-0.38,0.25-1.45,0.32-1.85c0.22-1.27,0.97-3.29,0.79-4.6c-0.27-1.99-2.54-3.51-4-4.82
									c-1.76-1.57-0.98-0.86,1.22-1.18c1.19-0.17,3.32-0.06,4.37-0.66c1.24-0.7,3.62-6.52,3.61-6.52c0.83,0.52,1.6-0.8,0.77-1.31
									c-0.14-0.09-0.29-0.18-0.43-0.27c-0.22-0.14-0.54-0.14-0.77,0c-2.16,1.34-1.83,5.27-3.76,6.67
									c-1.95,1.41-5.54-0.13-7.5,1.53c-0.21,0.17-0.26,0.49-0.2,0.74c0.6,2.42,4.5,3.45,5.2,5.53c0.69,2.06-1.88,5.26-0.95,7.53
									c0.14,0.34,0.37,0.53,0.73,0.56c2.46,0.18,4.69-3.23,6.87-3.23c2.19,0,4.4,3.41,6.87,3.23c0.37-0.03,0.6-0.22,0.73-0.56
									c0.92-2.27-1.64-5.48-0.95-7.53c0.7-2.08,4.6-3.11,5.2-5.53c0.06-0.25,0.01-0.57-0.2-0.74c-1.88-1.58-5.05-0.3-7.08-1.44
									c-1.63-0.92-2.61-4.44-3.49-6.21C51.28,16.17,49.97,16.94,50.4,17.81z"/>
							</g>
						</g>
					</g>
					<g>
						<g>
							<g>
								<path class="st1" d="M72.66,26.66c0.62,1.26,1.24,3.59,2.31,4.5c1.07,0.9,3.8,0.93,5.14,0.99c-0.68-0.03,0.47-0.89-0.77,0
									c-0.44,0.31-0.82,0.8-1.21,1.18c-0.49,0.47-1.39,1.05-1.66,1.71c-0.41,1.04,0.03,4.35,0.61,5.15
									c0.31,0.42,0.59,0.01,0.21-0.42c-0.27-0.31-1-0.53-1.37-0.72c-0.71-0.38-1.66-1.15-2.47-1.29
									c-1.21-0.21-3.79,1.06-4.55,1.91c-0.13,0.15-0.43,0.18-0.58,0.3c0.24-0.2,0.35,0.78,0.59,0.33
									c0.17-0.32,0.16-0.92,0.22-1.28c0.16-0.93,0.62-2.21,0.54-3.17c-0.11-1.45-1.71-2.68-2.82-3.55
									c-0.21-0.17-0.4-0.46-0.63-0.62c-0.56-0.38,0.04,0.42-0.31,0.45c0.56-0.05,1.13-0.16,1.69-0.24
									c0.85-0.12,2.28-0.05,3.04-0.47c0.66-0.36,0.84-0.94,1.16-1.6c0.3-0.6,0.6-1.21,0.89-1.81c0.14-0.29,0.27-0.59,0.43-0.87
									c0.37-0.64,0.03-0.07-0.21-0.22c0.83,0.52,1.6-0.8,0.77-1.31c-0.1-0.06-0.2-0.12-0.3-0.18c-0.22-0.14-0.54-0.14-0.77,0
									c-1.49,0.93-1.43,3.77-2.6,4.62c-1.2,0.86-3.84-0.09-5.2,1.06c-0.21,0.17-0.26,0.49-0.2,0.74c0.4,1.62,3.26,2.81,3.61,3.8
									c0.34,0.96-1.3,3.69-0.69,5.2c0.14,0.34,0.37,0.53,0.73,0.56c1.65,0.12,3.71-2.26,4.73-2.26c1.03,0,3.09,2.38,4.73,2.26
									c0.37-0.03,0.6-0.22,0.73-0.56c0.61-1.51-1.02-4.24-0.69-5.2c0.35-0.99,3.21-2.18,3.61-3.8c0.06-0.25,0.01-0.57-0.2-0.74
									c-1.35-1.14-3.52-0.27-4.98-1.06c-0.79-0.42-1.68-2.99-2.26-4.17C73.54,25.02,72.23,25.79,72.66,26.66z"/>
							</g>
						</g>
					</g>
					<g>
						<g>
							<g>
								<path class="st1" d="M26.03,25.89c-0.58,1.18-1.49,3.75-2.26,4.17c-1.46,0.79-3.63-0.08-4.98,1.06
									c-0.21,0.17-0.26,0.49-0.2,0.74c0.4,1.62,3.26,2.81,3.61,3.8c0.34,0.96-1.3,3.69-0.69,5.2c0.14,0.34,0.37,0.53,0.73,0.56
									c1.65,0.12,3.71-2.26,4.73-2.26c1.03,0,3.09,2.38,4.73,2.26c0.37-0.03,0.6-0.22,0.73-0.56c0.61-1.51-1.02-4.24-0.69-5.2
									c0.35-0.99,3.21-2.18,3.61-3.8c0.06-0.25,0.01-0.57-0.2-0.74c-1.36-1.14-4.01-0.2-5.2-1.06c-1.18-0.85-1.11-3.69-2.6-4.62
									c-0.22-0.14-0.54-0.14-0.77,0c-0.1,0.06-0.2,0.12-0.3,0.18c-0.83,0.52-0.07,1.83,0.77,1.31c-0.42,0.26-0.35-0.48-0.01,0.62
									c0.16,0.52,0.51,1.03,0.75,1.52c0.31,0.63,0.57,1.62,1.12,2.09c1.07,0.9,3.8,0.93,5.14,0.99c-0.68-0.03,0.47-0.89-0.77,0
									c-0.44,0.31-0.82,0.8-1.21,1.18c-0.49,0.47-1.39,1.05-1.66,1.71c-0.41,1.04,0.03,4.35,0.61,5.15
									c0.31,0.42,0.59,0.01,0.21-0.42c-0.27-0.31-1-0.53-1.37-0.72c-0.71-0.38-1.66-1.15-2.47-1.29
									c-1.21-0.21-3.79,1.06-4.55,1.91c-0.13,0.15-0.43,0.18-0.58,0.3c0.24-0.2,0.35,0.78,0.59,0.33
									c0.17-0.32,0.16-0.92,0.22-1.28c0.16-0.93,0.62-2.21,0.54-3.17c-0.11-1.45-1.71-2.68-2.82-3.55
									c-0.21-0.17-0.4-0.46-0.63-0.62c-0.56-0.38,0.04,0.42-0.31,0.45c0.56-0.05,1.13-0.16,1.69-0.24
									c0.85-0.12,2.28-0.05,3.04-0.47c1.39-0.77,2.06-3.42,2.73-4.78C27.77,25.79,26.46,25.02,26.03,25.89z"/>
							</g>
						</g>
					</g>
				</g>
				<g>
					<g>
						<g>
							<g>
								<g>
									<g>
										<g>
											<g>
												<g>
													<g>
														<path class="st1" d="M55.17,52.31c-0.36,6.61-10.33,6.68-10.33,0C44.83,45.63,54.81,45.69,55.17,52.31
															c0.05,0.97,1.57,0.98,1.52,0c-0.2-3.63-2.9-6.69-6.69-6.69c-3.62,0-6.7,3.05-6.69,6.69c0.02,3.52,2.84,6.5,6.36,6.67
															c3.91,0.19,6.81-2.91,7.01-6.67C56.74,51.33,55.22,51.33,55.17,52.31z"/>
													</g>
												</g>
											</g>
										</g>
										<g>
											<g>
												<g>
													<g>
														<path class="st1" d="M43.31,52.31c0.2,3.63,2.9,6.69,6.69,6.69c3.62,0,6.7-3.05,6.69-6.69
															c-0.02-3.52-2.84-6.5-6.36-6.67C46.41,45.45,43.52,48.55,43.31,52.31c-0.05,0.98,1.47,0.97,1.52,0
															c0.36-6.61,10.33-6.68,10.33,0c0,6.68-9.98,6.62-10.33,0C44.78,51.33,43.26,51.33,43.31,52.31z"/>
													</g>
												</g>
											</g>
										</g>
									</g>
								</g>
								<g>
									<g>
										<g>
											<g>
												<g>
													<g>
														<path class="st1" d="M42.36,80.72c-0.17-4.58,0.99-11.31-1.41-15.26c-2.78-4.59-5.21-7.68-5.51-13.41
															c-0.09-1.72-0.7-5.46,1.92-5.47c3.15-0.02,1.65,7.73,2.64,9.95c2.99,6.73,12.52,7.28,17.65,2.97
															c3.72-3.13,2.28-6.26,3.03-10.34c0.54-2.94,3.28-3.29,3.91-0.11c0.61,3.11-0.38,6.95-1.48,9.8
															c-1.62,4.15-4.89,6.15-5.06,10.58c-0.14,3.77-0.27,7.53-0.41,11.3c-0.04,0.98,1.48,0.98,1.52,0
															c0.13-3.64,0.26-7.28,0.4-10.92c0.17-4.79,4.49-7.95,5.77-12.74c0.65-2.44,2.13-9.01-0.04-11.18
															c-1.92-1.92-5.46-0.88-6.1,1.63c-0.34,1.32,0.05,2.99-0.03,4.34c-0.22,4.02-2.24,7.24-6.07,8.55
															c-2.78,0.95-6.5,0.48-8.86-1.4c-3.53-2.8-3.23-5.97-3.4-9.84c-0.12-2.69-1.15-4.81-4.39-4.09
															c-3.3,0.73-2.65,4.28-2.52,6.98c0.18,3.66,1.13,7.22,2.96,10.4c1.15,2.01,3.05,3.48,3.5,5.67
															c0.81,3.94,0.31,8.56,0.46,12.6C40.87,81.69,42.39,81.7,42.36,80.72L42.36,80.72z"/>
													</g>
												</g>
												<g>
													<g>
														<path class="st1" d="M43.31,52.31c0.2,3.63,2.9,6.69,6.69,6.69c3.62,0,6.7-3.05,6.69-6.69
															c-0.02-3.52-2.84-6.5-6.36-6.67C46.41,45.45,43.52,48.55,43.31,52.31c-0.05,0.98,1.47,0.97,1.52,0
															c0.36-6.61,10.33-6.68,10.33,0c0,6.68-9.98,6.62-10.33,0C44.78,51.33,43.26,51.33,43.31,52.31z"/>
													</g>
												</g>
											</g>
										</g>
										<g>
											<g>
												<g>
													<g>
														<path class="st1" d="M55.17,52.31c-0.36,6.61-10.33,6.68-10.33,0C44.83,45.63,54.81,45.69,55.17,52.31
															c0.05,0.97,1.57,0.98,1.52,0c-0.2-3.63-2.9-6.69-6.69-6.69c-3.62,0-6.7,3.05-6.69,6.69c0.02,3.52,2.84,6.5,6.36,6.67
															c3.91,0.19,6.81-2.91,7.01-6.67C56.74,51.33,55.22,51.33,55.17,52.31z"/>
													</g>
												</g>
											</g>
										</g>
									</g>
								</g>
								<g>
									<g>
										<g>
											<g>
												<g>
													<g>
														<path class="st1" d="M43.31,52.31c0.2,3.63,2.9,6.69,6.69,6.69c3.62,0,6.7-3.05,6.69-6.69
															c-0.02-3.52-2.84-6.5-6.36-6.67C46.41,45.45,43.52,48.55,43.31,52.31c-0.05,0.98,1.47,0.97,1.52,0
															c0.36-6.61,10.33-6.68,10.33,0c0,6.68-9.98,6.62-10.33,0C44.78,51.33,43.26,51.33,43.31,52.31z"/>
													</g>
												</g>
											</g>
										</g>
									</g>
								</g>
							</g>
						</g>
					</g>
				</g>
			</g>
			<g>
				<g>
					<path class="st1" d="M23.04,63.75c-1.49,0-2.98,0-4.48,0c-0.98,0-0.98,1.52,0,1.52c1.49,0,2.98,0,4.48,0
						C24.02,65.27,24.02,63.75,23.04,63.75L23.04,63.75z"/>
				</g>
			</g>
			<g>
				<g>
					<path class="st1" d="M26.57,51.92c-1.3-0.74-2.6-1.47-3.89-2.21c-0.85-0.48-1.62,0.83-0.77,1.31c1.3,0.74,2.6,1.47,3.89,2.21
						C26.66,53.72,27.42,52.41,26.57,51.92L26.57,51.92z"/>
				</g>
			</g>
			<g>
				<g>
					<path class="st1" d="M25.81,75.79c-1.3,0.74-2.6,1.47-3.89,2.21c-0.85,0.48-0.09,1.8,0.77,1.31c1.3-0.74,2.6-1.47,3.89-2.21
						C27.42,76.62,26.66,75.31,25.81,75.79L25.81,75.79z"/>
				</g>
			</g>
			<g>
				<g>
					<path class="st1" d="M76.96,65.27c1.49,0,2.98,0,4.48,0c0.98,0,0.98-1.52,0-1.52c-1.49,0-2.98,0-4.48,0
						C75.98,63.75,75.98,65.27,76.96,65.27L76.96,65.27z"/>
				</g>
			</g>
			<g>
				<g>
					<path class="st1" d="M74.19,53.24c1.3-0.74,2.6-1.47,3.89-2.21c0.85-0.48,0.09-1.8-0.77-1.31c-1.3,0.74-2.6,1.47-3.89,2.21
						C72.58,52.41,73.34,53.72,74.19,53.24L74.19,53.24z"/>
				</g>
			</g>
			<g>
				<g>
					<path class="st1" d="M73.43,77.1c1.3,0.74,2.6,1.47,3.89,2.21c0.85,0.48,1.62-0.83,0.77-1.31c-1.3-0.74-2.6-1.47-3.89-2.21
						C73.34,75.31,72.58,76.62,73.43,77.1L73.43,77.1z"/>
				</g>
			</g>
		</g>
	</g>
</g>
</svg>
